# Blender 4.1.0
# www.blender.org
mtllib ashpile.mtl
o Icosphere
v 0.266010 0.259634 0.923228
v -0.783332 0.263781 0.547523
v -0.761673 0.226817 -0.553747
v 0.292256 0.262897 -0.901501
v 0.947678 0.327407 0.002033
v -0.000000 0.637523 -0.030266
v 1.206931 0.179664 0.244552
v 1.785271 0.006461 0.906523
v 1.560126 0.006461 -0.274125
v 1.176276 0.183043 -0.141008
v 0.095190 0.153627 1.265740
v -0.166677 0.006461 1.960976
v 0.933480 0.006461 1.334780
v 0.508126 0.147757 1.076159
v -1.069726 0.155180 0.549822
v -1.684888 0.002853 0.491431
v -1.277617 0.002853 1.607503
v -0.936460 0.157732 0.913024
v -0.845952 0.155083 -0.837641
v -1.082524 0.006461 -1.487908
v -1.446748 0.006461 -0.379717
v -1.010317 0.141127 -0.503369
v 0.539581 0.155450 -1.060517
v 0.973768 0.006461 -1.281250
v -0.052083 0.006461 -1.866805
v 0.186495 0.155098 -1.194899
v 0.869596 0.358379 0.248546
v 0.714941 0.317022 0.519675
v 0.502008 0.305845 0.752241
v -0.032915 0.299507 0.955926
v -0.359024 0.329673 0.908863
v -0.614940 0.313340 0.745685
v -0.847073 0.285376 0.306103
v -0.879617 0.240716 0.004332
v -0.841727 0.213670 -0.306670
v -0.558933 0.306771 -0.715224
v -0.277928 0.328794 -0.853056
v 0.031031 0.298312 -0.908112
v 0.502742 0.317635 -0.749381
v 0.711378 0.358262 -0.517451
v 0.865401 0.363415 -0.245675
v 0.075371 0.674733 0.062726
v 0.158266 0.577817 0.470459
v 0.224998 0.412819 0.722660
v 0.753189 0.524674 -0.000000
v 0.515573 0.648685 0.000000
v 0.243911 0.672822 -0.021121
v -0.197328 0.579395 0.122175
v -0.417835 0.486369 0.298440
v -0.614630 0.380870 0.390193
v -0.197328 0.560545 -0.143749
v -0.417106 0.449062 -0.303042
v -0.609309 0.331041 -0.442685
v 0.075371 0.603838 -0.232355
v 0.159317 0.544984 -0.490336
v 0.232734 0.411935 -0.716350
v 0.357035 0.602292 -0.259401
v 0.628169 0.526341 -0.261923
v 0.443217 0.462333 -0.516485
v -0.136377 0.547395 -0.419718
v -0.055195 0.453241 -0.678896
v -0.354439 0.460855 -0.581634
v -0.441320 0.456997 0.002531
v -0.662121 0.309080 -0.154702
v -0.662154 0.389896 0.171588
v -0.138059 0.529475 0.400084
v -0.371265 0.453280 0.586042
v -0.074414 0.450796 0.694047
v 0.357035 0.680131 0.238664
v 0.443118 0.510232 0.516566
v 0.628169 0.555649 0.261923
v 0.996966 0.191915 -0.467638
v 1.178591 0.006461 -0.720536
v 0.788751 0.178886 -0.798014
v -0.200239 0.170650 -1.229960
v -0.629265 0.006461 -1.891607
v -0.569093 0.172476 -1.105301
v -1.101352 0.146066 -0.162671
v -1.642048 0.006461 0.046818
v -1.141657 0.161802 0.190946
v -0.716014 0.175433 1.174241
v -0.855459 0.006461 1.949029
v -0.342591 0.171179 1.302658
v 0.821505 0.166541 0.841107
v 1.486002 0.006461 1.195059
v 1.067152 0.184163 0.567842
v 0.533855 0.006461 -1.583468
v -1.278813 0.006461 -0.856894
v -1.440061 -0.007971 1.081882
v 0.379931 0.006461 1.666890
v 1.755201 0.006461 0.305624
v 1.039142 0.258648 -0.072426
v 0.374214 0.207200 0.985325
v -0.838732 0.217673 0.699959
v -0.869140 0.185376 -0.533956
v 0.244826 0.211179 -1.017534
v 0.384577 0.281980 0.841389
v -0.705249 0.288049 0.638595
v -0.802834 0.218941 -0.438377
v 0.169973 0.279535 -0.906540
v 0.912568 0.349917 -0.116845
v 0.247366 0.329507 0.823737
v 0.115292 0.660031 -0.034182
v -0.699817 0.319895 0.462661
v -0.688997 0.274094 -0.500619
v 0.263311 0.334055 -0.810691
v 1.046845 0.256753 0.090889
v 1.482563 0.094561 0.548513
v 1.376862 0.096913 -0.210531
v 0.190256 0.209512 1.061005
v -0.013463 0.083559 1.591928
v 0.694598 0.078774 1.186995
v -0.898232 0.214794 0.547171
v -1.361687 0.082093 0.524776
v -1.105173 0.083021 1.232125
v -0.789201 0.199683 -0.671604
v -0.964987 0.084722 -1.127532
v -1.208184 0.079009 -0.450201
v 0.396291 0.213105 -0.966034
v 0.756713 0.083441 -1.192506
v 0.087073 0.084229 -1.502224
v 0.915198 0.348231 0.119588
v 0.799124 0.338699 0.384731
v 0.612993 0.310687 0.641975
v 0.125733 0.279150 0.941817
v -0.199441 0.317403 0.943687
v -0.495900 0.328387 0.839046
v -0.811756 0.277124 0.426241
v -0.870866 0.269179 0.162777
v -0.867502 0.219070 -0.155570
v -0.669422 0.265547 -0.632144
v -0.424049 0.327810 -0.790383
v -0.122739 0.315349 -0.888941
v 0.393850 0.290158 -0.832861
v 0.611289 0.339988 -0.640307
v 0.794999 0.365831 -0.382450
v 0.035627 0.665963 -0.002230
v 0.117846 0.640610 0.253861
v 0.195226 0.500898 0.609302
v 0.852350 0.424478 0.000212
v 0.640048 0.600910 -0.000000
v 0.381714 0.672036 -0.002215
v -0.093273 0.619799 0.033580
v -0.308889 0.530117 0.221587
v -0.519377 0.439965 0.343595
v -0.093273 0.602865 -0.072604
v -0.308812 0.507683 -0.224390
v -0.517806 0.390463 -0.376204
v 0.035627 0.622757 -0.114486
v 0.117954 0.582546 -0.363057
v 0.197781 0.484598 -0.608722
v 0.166681 0.638786 -0.123871
v 0.261506 0.574523 -0.380424
v 0.442617 0.634070 -0.131151
v 0.339142 0.440604 -0.622548
v 0.696880 0.540602 -0.130169
v 0.541400 0.495937 -0.393350
v 0.304521 0.644190 -0.130335
v 0.216584 0.610089 -0.249859
v 0.576160 0.599649 -0.131418
v 0.496287 0.572757 -0.262612
v 0.403119 0.537346 -0.390845
v 0.303027 0.510058 -0.507349
v 0.807929 0.453673 -0.125774
v 0.749676 0.453515 -0.256985
v 0.673522 0.444023 -0.391358
v 0.580336 0.415523 -0.519730
v 0.476235 0.391433 -0.633786
v 0.369410 0.370002 -0.729707
v -0.063667 0.588360 -0.196527
v -0.280996 0.510466 -0.366263
v 0.012041 0.554643 -0.461478
v -0.487295 0.406130 -0.514973
v 0.091510 0.437958 -0.703088
v -0.207092 0.468798 -0.637227
v -0.028383 0.578691 -0.329452
v -0.170664 0.556653 -0.283221
v 0.053039 0.505554 -0.588609
v -0.096421 0.513041 -0.553202
v -0.247168 0.511731 -0.504219
v -0.388892 0.465483 -0.445011
v 0.129780 0.359254 -0.808093
v -0.013348 0.377349 -0.794163
v -0.165473 0.395339 -0.765353
v -0.316330 0.407363 -0.716285
v -0.456058 0.390399 -0.650081
v -0.579942 0.331729 -0.577237
v -0.206029 0.571632 -0.002778
v -0.435225 0.478650 0.156933
v -0.435172 0.445323 -0.153789
v -0.640729 0.395869 0.281267
v -0.640248 0.312984 -0.304077
v -0.669204 0.346875 0.013198
v -0.322061 0.510960 -0.074660
v -0.322061 0.522311 0.073421
v -0.543365 0.372805 -0.232059
v -0.555862 0.381396 -0.075304
v -0.555864 0.422436 0.092113
v -0.543445 0.445296 0.235037
v -0.727115 0.265144 -0.372718
v -0.757193 0.253034 -0.232079
v -0.774873 0.269414 -0.075148
v -0.774987 0.314725 0.092669
v -0.757826 0.342739 0.236644
v -0.729167 0.337871 0.339414
v -0.063667 0.633099 0.086126
v 0.010505 0.558507 0.431177
v -0.282205 0.510552 0.363838
v 0.078157 0.438391 0.713933
v -0.497831 0.424278 0.485061
v -0.226045 0.457507 0.650578
v -0.170810 0.561753 0.251602
v -0.028537 0.606106 0.220247
v -0.393684 0.477086 0.437025
v -0.253378 0.490898 0.505815
v -0.103531 0.495594 0.556475
v 0.046869 0.511931 0.591420
v -0.604634 0.355087 0.555829
v -0.491328 0.389878 0.664733
v -0.361784 0.401788 0.748787
v -0.212780 0.394923 0.801201
v -0.053776 0.378126 0.826176
v 0.099350 0.357361 0.832554
v 0.166681 0.689950 0.011289
v 0.442616 0.677566 0.128963
v 0.261426 0.643912 0.348958
v 0.696880 0.555235 0.130169
v 0.338040 0.466759 0.623448
v 0.541392 0.540987 0.393356
v 0.216584 0.693649 0.140550
v 0.304521 0.694359 0.097215
v 0.302776 0.559384 0.505367
v 0.403109 0.611524 0.388666
v 0.496288 0.634363 0.261103
v 0.576161 0.624753 0.131418
v 0.366268 0.367905 0.732457
v 0.476027 0.404485 0.634178
v 0.580618 0.416191 0.519929
v 0.673864 0.436451 0.391563
v 0.750064 0.459413 0.257238
v 0.808289 0.456099 0.126033
v 0.998193 0.271736 -0.214858
v 0.840436 0.279488 -0.503093
v 1.258501 0.100099 -0.397209
v 0.637437 0.253944 -0.774525
v 0.958851 0.094938 -0.770611
v 1.097555 0.189318 -0.314734
v 0.923140 0.279087 -0.359890
v 1.363950 0.006461 -0.491286
v 1.075384 0.099632 -0.571178
v 0.882065 0.187896 -0.627086
v 0.744650 0.270965 -0.649299
v 1.074322 0.006461 -1.010529
v 0.885558 0.090908 -1.028821
v 0.676268 0.167407 -0.947064
v 0.519866 0.235475 -0.887081
v 0.095962 0.225185 -1.034512
v -0.238293 0.250622 -1.010926
v -0.143291 0.089172 -1.548903
v -0.552192 0.246927 -0.878308
v -0.608090 0.090944 -1.478840
v -0.005315 0.163714 -1.220586
v -0.073369 0.237857 -1.036816
v -0.347390 0.006461 -1.929306
v -0.392851 0.090833 -1.552800
v -0.387002 0.174188 -1.179762
v -0.404897 0.253220 -0.955394
v -0.884652 0.006461 -1.738909
v -0.818540 0.089464 -1.314110
v -0.719266 0.166639 -0.979203
v -0.684206 0.230950 -0.775629
v -0.919969 0.179721 -0.395983
v -0.977772 0.193171 -0.077929
v -1.268994 0.080840 -0.263629
v -0.972633 0.225911 0.252177
v -1.386675 0.088085 0.124095
v -1.055454 0.143468 -0.335777
v -0.955783 0.182368 -0.239319
v -1.548144 0.006461 -0.164599
v -1.345091 0.083111 -0.064391
v -1.123672 0.155392 0.014406
v -0.987424 0.207395 0.090378
v -1.701508 0.006010 0.255420
v -1.409075 0.088063 0.317073
v -1.115360 0.162971 0.364646
v -0.940407 0.225043 0.409460
v -0.757980 0.236928 0.824303
v -0.519676 0.255934 1.021108
v -0.992891 0.090850 1.394199
v -0.179175 0.239012 1.101881
v -0.581560 0.091282 1.616973
v -0.839765 0.168844 1.049596
v -0.651398 0.249952 0.935949
v -1.114384 0.006010 1.810833
v -0.808926 0.092644 1.541323
v -0.544006 0.176162 1.249184
v -0.355486 0.252258 1.078908
v -0.514682 0.006461 2.000044
v -0.269926 0.089028 1.630549
v -0.118725 0.163362 1.296311
v 0.013913 0.225541 1.094585
v 0.515223 0.224485 0.894625
v 0.756538 0.236157 0.659880
v 0.892987 0.086414 1.069111
v 0.943032 0.268374 0.377188
v 1.279430 0.097666 0.871614
v 0.668457 0.158285 0.951487
v 0.643909 0.235522 0.782872
v 1.224701 0.006461 1.255488
v 1.121178 0.091134 0.992330
v 0.948438 0.175381 0.704498
v 0.859909 0.247745 0.519269
v 1.679358 0.006461 1.090699
v 1.412137 0.098486 0.732607
v 1.147477 0.185639 0.409540
v 1.012362 0.267987 0.233093
v 0.368512 0.151888 -1.128615
v 0.246752 0.006461 -1.733226
v 0.788539 0.006461 -1.453932
v 0.553188 0.081279 -1.295498
v 0.340408 0.082164 -1.385480
v -0.932483 0.146805 -0.666707
v -1.356664 0.006461 -0.599791
v -1.201757 0.006461 -1.171631
v -1.054392 0.082241 -0.859570
v -1.134469 0.079258 -0.648712
v -0.996284 0.153031 0.733902
v -1.361217 -0.003912 1.362012
v -1.571616 -0.003912 0.778158
v -1.240082 0.075036 0.787141
v -1.162145 0.075365 1.012254
v 0.305619 0.147334 1.176855
v 0.648504 0.006461 1.482315
v 0.122259 0.006461 1.839559
v 0.223353 0.080531 1.472383
v 0.455813 0.077245 1.344496
v 1.199611 0.179084 0.044693
v 1.684808 0.006461 -0.005931
v 1.798864 0.006461 0.628818
v 1.474186 0.093536 0.281192
v 1.444264 0.095174 0.039855
v 0.334731 0.326750 0.795368
v -0.666372 0.322012 0.547723
v -0.739815 0.252266 -0.435708
v 0.185955 0.325125 -0.839843
v 0.855714 0.413601 -0.082258
v 0.108041 0.641557 -0.085628
v 0.378115 0.653518 -0.087773
v 0.639515 0.586858 -0.087486
v 0.229763 0.632012 -0.167594
v 0.199771 0.591435 -0.332672
v 0.507125 0.606204 -0.175205
v 0.481655 0.536050 -0.349943
v 0.323339 0.542497 -0.428162
v 0.280822 0.480087 -0.581179
v 0.753697 0.486147 -0.170962
v 0.741144 0.423083 -0.344528
v 0.600451 0.453523 -0.436269
v 0.556987 0.382660 -0.598798
v 0.395542 0.401520 -0.664038
v 0.342804 0.333819 -0.788597
v -0.041269 0.604520 -0.129502
v 0.033912 0.574752 -0.386562
v 0.114405 0.479690 -0.635267
v -0.087763 0.576834 -0.270198
v -0.254648 0.526352 -0.292801
v -0.009928 0.526808 -0.536458
v -0.184027 0.503001 -0.566345
v -0.307296 0.500516 -0.439835
v -0.465960 0.424014 -0.446684
v 0.070145 0.392577 -0.770112
v -0.100151 0.362689 -0.815707
v -0.230331 0.427363 -0.708461
v -0.398731 0.380522 -0.718476
v -0.509396 0.380547 -0.581648
v -0.643854 0.291079 -0.569769
v -0.133546 0.599558 -0.007134
v -0.357154 0.488531 -0.151646
v -0.568792 0.356308 -0.305039
v -0.284003 0.535715 -0.000608
v -0.357174 0.511684 0.151294
v -0.513255 0.396204 -0.155683
v -0.595358 0.382673 0.011259
v -0.513275 0.451693 0.165742
v -0.569108 0.429545 0.285468
v -0.710027 0.274304 -0.304435
v -0.801887 0.242027 -0.155806
v -0.742200 0.309532 0.011364
v -0.802573 0.311561 0.167548
v -0.710587 0.361896 0.285758
v -0.744853 0.312875 0.401980
v -0.041269 0.644878 0.033654
v -0.254857 0.533467 0.287269
v -0.470361 0.450405 0.418621
v -0.087809 0.602813 0.178594
v 0.033651 0.603700 0.295322
v -0.311021 0.494424 0.439403
v -0.193194 0.482223 0.572076
v -0.014627 0.521280 0.535034
v 0.108394 0.487022 0.639600
v -0.531935 0.392525 0.566499
v -0.449262 0.376883 0.753469
v -0.267119 0.422078 0.735657
v -0.154852 0.364419 0.857743
v 0.042904 0.391515 0.792115
v 0.156603 0.322839 0.863605
v 0.108041 0.676068 -0.014857
v 0.199742 0.667911 0.241249
v 0.279983 0.511190 0.581298
v 0.229763 0.699198 0.075411
v 0.378115 0.686648 0.081981
v 0.323288 0.609661 0.422999
v 0.481652 0.603401 0.349379
v 0.507125 0.652023 0.174639
v 0.639515 0.600003 0.087486
v 0.394627 0.416179 0.664849
v 0.557246 0.376062 0.599131
v 0.600546 0.465144 0.436332
v 0.741851 0.410350 0.344928
v 0.753811 0.496404 0.171040
v 0.856156 0.413214 0.082760
v 0.983076 0.292220 -0.138967
v 1.244465 0.129246 -0.317169
v 0.998811 0.247800 -0.299243
v 0.852284 0.309046 -0.416090
v 1.231344 0.069398 -0.485922
v 0.957727 0.127734 -0.649214
v 0.820847 0.247611 -0.596080
v 0.665385 0.290231 -0.688462
v 0.973143 0.064319 -0.938891
v 0.777813 0.114041 -1.062873
v 0.605663 0.219842 -0.865210
v 0.438886 0.245623 -0.894532
v 0.168526 0.237478 -0.984889
v -0.020358 0.113305 -1.419115
v 0.007305 0.209831 -1.086115
v -0.144768 0.268485 -0.977463
v -0.295128 0.062643 -1.683321
v -0.459944 0.119152 -1.400856
v -0.339113 0.227660 -1.035559
v -0.459503 0.276687 -0.873581
v -0.774238 0.062683 -1.516555
v -0.835405 0.114082 -1.138157
v -0.645413 0.217388 -0.868822
v -0.712975 0.233302 -0.694169
v -0.865558 0.192967 -0.454526
v -1.169978 0.103772 -0.349770
v -0.972241 0.169945 -0.324621
v -0.933852 0.197565 -0.157842
v -1.387347 0.057016 -0.164405
v -1.277899 0.111518 0.024868
v -1.021205 0.186953 0.007942
v -0.943746 0.234014 0.167173
v -1.503562 0.061908 0.230718
v -1.294880 0.112808 0.394298
v -0.998166 0.208043 0.342362
v -0.882247 0.239439 0.458837
v -0.765022 0.248350 0.723367
v -0.980361 0.115273 1.219687
v -0.743307 0.220225 0.928681
v -0.555594 0.279252 0.932234
v -0.979121 0.063937 1.586299
v -0.648926 0.120595 1.464355
v -0.469421 0.229901 1.105340
v -0.246179 0.270202 1.041277
v -0.457372 0.062664 1.755129
v -0.128667 0.112801 1.502779
v -0.096820 0.210223 1.153962
v 0.107792 0.237478 1.032389
v 0.429178 0.237017 0.904685
v 0.747854 0.107972 1.055748
v 0.606825 0.207805 0.872603
v 0.671086 0.258251 0.693874
v 1.081151 0.061614 1.104646
v 1.111556 0.123340 0.849345
v 0.844509 0.218938 0.617160
v 0.865375 0.282755 0.424941
v 1.460823 0.068624 0.900363
v 1.343646 0.126725 0.560414
v 1.022192 0.243288 0.325899
v 0.991096 0.289515 0.148917
v 0.334180 0.190706 -1.033165
v 0.704802 0.056518 -1.318323
v 0.420362 0.106252 -1.259172
v 0.225741 0.057526 -1.541867
v -0.860308 0.177634 -0.624331
v -1.077394 0.057872 -1.053948
v -1.034341 0.104911 -0.716410
v -1.233733 0.054995 -0.564380
v -0.905900 0.194994 0.654471
v -1.391714 0.050803 0.694708
v -1.118557 0.101752 0.841970
v -1.210926 0.051098 1.205643
v 0.290892 0.186713 1.068664
v 0.111932 0.056883 1.639573
v 0.325813 0.102540 1.325335
v 0.602346 0.053338 1.336283
v 1.087884 0.230547 0.013326
v 1.590674 0.064434 0.488714
v 1.364320 0.123296 0.112516
v 1.506853 0.066170 -0.063859
vn 0.1842 0.8582 0.4791
vn -0.4107 0.8981 0.1569
vn -0.4325 0.8951 -0.1083
vn 0.1385 0.8478 -0.5120
vn 0.6378 0.7701 -0.0062
vn -0.2779 0.9090 -0.3106
vn 0.3449 0.9381 0.0301
vn 0.2135 0.9740 0.0754
vn 0.3835 0.8974 -0.2182
vn 0.4075 0.9087 -0.0907
vn 0.1214 0.9497 0.2885
vn 0.0538 0.9705 0.2349
vn 0.1060 0.9575 0.2681
vn 0.1738 0.9290 0.3268
vn -0.2954 0.9465 0.1303
vn -0.2576 0.9631 0.0780
vn -0.2237 0.9678 0.1157
vn -0.3163 0.9432 0.1017
vn -0.3184 0.9374 -0.1413
vn -0.2224 0.9643 -0.1438
vn -0.3127 0.9410 -0.1296
vn -0.3178 0.9422 -0.1058
vn 0.1431 0.9330 -0.3303
vn 0.2798 0.9341 -0.2215
vn 0.0691 0.9685 -0.2390
vn 0.1092 0.9476 -0.3001
vn 0.5804 0.7688 0.2685
vn 0.4654 0.7780 0.4221
vn 0.3152 0.8099 0.4947
vn 0.0987 0.8739 0.4760
vn -0.1141 0.9051 0.4095
vn -0.3825 0.8991 0.2127
vn -0.4506 0.8875 0.0968
vn -0.3932 0.9069 -0.1517
vn -0.3598 0.9302 -0.0721
vn -0.4206 0.8574 -0.2966
vn -0.1250 0.8625 -0.4903
vn 0.0698 0.8551 -0.5137
vn 0.2608 0.8335 -0.4871
vn 0.4479 0.7974 -0.4044
vn 0.6103 0.7556 -0.2379
vn -0.2224 0.9703 0.0952
vn -0.1082 0.9090 0.4026
vn 0.1548 0.7898 0.5936
vn 0.6365 0.7708 -0.0284
vn 0.2805 0.9520 -0.1228
vn 0.0221 0.9626 -0.2700
vn -0.3506 0.9341 0.0675
vn -0.3189 0.9439 0.0854
vn -0.4461 0.8730 0.1969
vn -0.3362 0.9369 -0.0959
vn -0.4759 0.8794 -0.0169
vn -0.5320 0.8446 -0.0595
vn -0.1041 0.9765 -0.1889
vn 0.0730 0.9293 -0.3620
vn 0.1577 0.8200 -0.5502
vn 0.1209 0.9376 -0.3259
vn 0.3973 0.8423 -0.3643
vn 0.2691 0.8573 -0.4389
vn -0.1782 0.9669 -0.1824
vn -0.0238 0.8650 -0.5012
vn -0.3260 0.9029 -0.2803
vn -0.4412 0.8900 -0.1152
vn -0.4668 0.8754 -0.1256
vn -0.4345 0.8958 -0.0941
vn -0.1970 0.9513 0.2371
vn -0.2479 0.9387 0.2394
vn -0.0425 0.9051 0.4230
vn 0.1104 0.9666 0.2313
vn 0.3498 0.7609 0.5465
vn 0.5324 0.7709 0.3497
vn 0.4700 0.8146 -0.3399
vn 0.3908 0.8874 -0.2445
vn 0.4014 0.8668 -0.2959
vn -0.0020 0.9581 -0.2864
vn -0.0709 0.9761 -0.2056
vn -0.1689 0.9553 -0.2425
vn -0.2947 0.9506 -0.0977
vn -0.2849 0.9541 -0.0929
vn -0.3024 0.9529 -0.0213
vn -0.1700 0.9629 0.2098
vn -0.0698 0.9763 0.2050
vn -0.0041 0.9593 0.2824
vn 0.1858 0.9417 0.2804
vn 0.1027 0.9702 0.2197
vn 0.2173 0.9586 0.1843
vn 0.1231 0.9596 -0.2531
vn -0.3217 0.9421 -0.0948
vn -0.2609 0.9617 0.0836
vn 0.1578 0.9572 0.2425
vn 0.3047 0.9515 -0.0433
vn 0.5261 0.8496 -0.0376
vn 0.1636 0.8995 0.4052
vn -0.3853 0.9161 0.1111
vn -0.3439 0.9341 -0.0964
vn 0.1345 0.9093 -0.3937
vn 0.2045 0.8324 0.5151
vn -0.4324 0.8907 0.1399
vn -0.4102 0.9080 -0.0851
vn 0.1299 0.8423 -0.5231
vn 0.6538 0.7491 -0.1062
vn 0.1971 0.7986 0.5687
vn -0.1083 0.8971 -0.4284
vn -0.4414 0.8779 0.1855
vn -0.5040 0.8566 -0.1109
vn 0.1541 0.7941 -0.5879
vn 0.5037 0.8639 0.0055
vn 0.2536 0.9669 0.0286
vn 0.3671 0.9167 -0.1578
vn 0.1683 0.9118 0.3746
vn 0.0920 0.9670 0.2377
vn 0.1525 0.9497 0.2736
vn -0.3580 0.9202 0.1583
vn -0.2483 0.9622 0.1121
vn -0.2689 0.9598 0.0806
vn -0.3913 0.9122 -0.1215
vn -0.2634 0.9569 -0.1222
vn -0.3233 0.9390 -0.1172
vn 0.1197 0.8950 -0.4297
vn 0.1912 0.9465 -0.2601
vn 0.0951 0.9646 -0.2461
vn 0.6415 0.7607 0.0993
vn 0.5021 0.7640 0.4052
vn 0.4351 0.7882 0.4353
vn 0.1690 0.8573 0.4863
vn 0.0140 0.8877 0.4603
vn -0.2658 0.9069 0.3270
vn -0.4032 0.8947 0.1921
vn -0.4664 0.8808 -0.0810
vn -0.3326 0.9353 -0.1208
vn -0.4705 0.8687 -0.1551
vn -0.2836 0.8509 -0.4422
vn -0.0051 0.8630 -0.5052
vn 0.1693 0.8290 -0.5331
vn 0.3411 0.8264 -0.4480
vn 0.5535 0.7638 -0.3322
vn -0.2545 0.9222 -0.2911
vn -0.2495 0.9316 0.2642
vn 0.0622 0.8380 0.5421
vn 0.7110 0.7032 -0.0046
vn 0.4600 0.8854 -0.0675
vn 0.1091 0.9763 -0.1867
vn -0.3654 0.9261 -0.0939
vn -0.3220 0.9425 0.0897
vn -0.4012 0.9029 0.1546
vn -0.2774 0.9470 -0.1620
vn -0.4155 0.9076 -0.0608
vn -0.5252 0.8510 0.0007
vn -0.1724 0.9585 -0.2273
vn -0.0240 0.9725 -0.2317
vn 0.1425 0.8718 -0.4688
vn -0.0853 0.9637 -0.2529
vn 0.1138 0.9378 -0.3281
vn 0.1640 0.9475 -0.2744
vn 0.2412 0.8505 -0.4674
vn 0.5234 0.8161 -0.2452
vn 0.2929 0.8558 -0.4264
vn 0.0170 0.9631 -0.2685
vn -0.0146 0.9697 -0.2437
vn 0.3304 0.9020 -0.2780
vn 0.2469 0.8911 -0.3808
vn 0.2306 0.8842 -0.4062
vn 0.2186 0.8813 -0.4189
vn 0.6599 0.7302 -0.1772
vn 0.5550 0.7706 -0.3132
vn 0.4325 0.8113 -0.3934
vn 0.3226 0.8368 -0.4423
vn 0.2791 0.8444 -0.4572
vn 0.2199 0.8179 -0.5316
vn -0.1974 0.9707 -0.1367
vn -0.3479 0.9360 -0.0545
vn -0.0580 0.9563 -0.2865
vn -0.5039 0.8553 -0.1210
vn 0.0495 0.8371 -0.5449
vn -0.1154 0.8947 -0.4315
vn -0.1272 0.9796 -0.1556
vn -0.2721 0.9570 -0.1007
vn 0.0013 0.8995 -0.4368
vn -0.0748 0.9296 -0.3608
vn -0.2279 0.9519 -0.2049
vn -0.4261 0.9029 -0.0564
vn 0.1000 0.8039 -0.5863
vn 0.0141 0.8290 -0.5591
vn -0.0496 0.8422 -0.5370
vn -0.2095 0.8539 -0.4763
vn -0.4176 0.8461 -0.3313
vn -0.5345 0.8271 -0.1737
vn -0.3856 0.9199 -0.0710
vn -0.3679 0.9277 -0.0626
vn -0.4948 0.8666 -0.0648
vn -0.4311 0.8927 0.1311
vn -0.4993 0.8662 -0.0207
vn -0.4368 0.8726 -0.2187
vn -0.4337 0.8981 -0.0724
vn -0.4173 0.9072 -0.0532
vn -0.5155 0.8559 -0.0403
vn -0.4720 0.8681 -0.1537
vn -0.4031 0.8994 -0.1691
vn -0.3730 0.9278 0.0093
vn -0.4706 0.8810 -0.0490
vn -0.4171 0.9060 -0.0717
vn -0.4134 0.8904 -0.1907
vn -0.4635 0.8686 -0.1751
vn -0.4813 0.8762 0.0239
vn -0.4387 0.8743 0.2078
vn -0.3101 0.9430 0.1208
vn -0.2210 0.9333 0.2829
vn -0.2083 0.9628 0.1720
vn 0.0539 0.8415 0.5375
vn -0.4132 0.8929 0.1790
vn -0.1027 0.9437 0.3146
vn -0.2449 0.9440 0.2211
vn -0.2493 0.9358 0.2491
vn -0.2853 0.9452 0.1588
vn -0.1473 0.9664 0.2108
vn -0.1443 0.9468 0.2875
vn -0.0910 0.9037 0.4184
vn -0.4597 0.8725 0.1654
vn -0.3609 0.9009 0.2413
vn -0.1896 0.9143 0.3578
vn -0.0434 0.8958 0.4422
vn 0.0482 0.8651 0.4992
vn 0.1381 0.8230 0.5510
vn -0.0528 0.9661 -0.2529
vn 0.2377 0.9707 0.0358
vn -0.0630 0.9315 0.3583
vn 0.5794 0.7943 0.1826
vn 0.2144 0.7762 0.5929
vn 0.4751 0.7401 0.4759
vn -0.1123 0.9830 0.1450
vn 0.0661 0.9969 -0.0437
vn 0.1130 0.8409 0.5292
vn 0.2426 0.8585 0.4518
vn 0.3765 0.8769 0.2988
vn 0.4322 0.8929 0.1263
vn 0.2356 0.7640 0.6007
vn 0.3852 0.7418 0.5490
vn 0.4987 0.7040 0.5056
vn 0.5546 0.6930 0.4606
vn 0.6035 0.7093 0.3641
vn 0.6837 0.7118 0.1610
vn 0.5369 0.8273 -0.1649
vn 0.5224 0.7738 -0.3583
vn 0.3903 0.8643 -0.3174
vn 0.3273 0.8430 -0.4268
vn 0.4363 0.8770 -0.2011
vn 0.4300 0.8755 -0.2207
vn 0.5435 0.7903 -0.2829
vn 0.3929 0.8465 -0.3592
vn 0.4099 0.8443 -0.3453
vn 0.5051 0.7909 -0.3456
vn 0.4502 0.8002 -0.3964
vn 0.4104 0.9001 -0.1461
vn 0.3416 0.9198 -0.1930
vn 0.2442 0.9188 -0.3101
vn 0.2022 0.8770 -0.4359
vn 0.1022 0.9102 -0.4014
vn -0.0573 0.9140 -0.4016
vn 0.0427 0.9707 -0.2363
vn -0.2845 0.9052 -0.3156
vn -0.1064 0.9750 -0.1949
vn 0.0676 0.9524 -0.2972
vn 0.0452 0.9133 -0.4047
vn 0.0041 0.9737 -0.2276
vn -0.0327 0.9754 -0.2178
vn -0.0874 0.9576 -0.2745
vn -0.1681 0.9093 -0.3807
vn -0.1479 0.9728 -0.1785
vn -0.1862 0.9688 -0.1638
vn -0.2568 0.9455 -0.2004
vn -0.3785 0.9006 -0.2138
vn -0.3137 0.9459 -0.0825
vn -0.3156 0.9427 -0.1086
vn -0.3061 0.9446 -0.1187
vn -0.3935 0.9193 0.0085
vn -0.2758 0.9591 -0.0630
vn -0.3032 0.9481 -0.0955
vn -0.2977 0.9503 -0.0913
vn -0.2966 0.9458 -0.1320
vn -0.2876 0.9518 -0.1064
vn -0.2934 0.9526 -0.0803
vn -0.3568 0.9295 -0.0936
vn -0.2781 0.9604 -0.0171
vn -0.2622 0.9646 0.0294
vn -0.3056 0.9489 0.0791
vn -0.3783 0.9150 0.1402
vn -0.3611 0.9191 0.1577
vn -0.1634 0.9306 0.3276
vn -0.1883 0.9723 0.1387
vn 0.0525 0.9183 0.3925
vn -0.0352 0.9752 0.2186
vn -0.2589 0.9544 0.1488
vn -0.2821 0.9291 0.2392
vn -0.1442 0.9749 0.1698
vn -0.1015 0.9764 0.1904
vn -0.0813 0.9605 0.2660
vn -0.0480 0.9248 0.3773
vn -0.0072 0.9741 0.2261
vn 0.0289 0.9722 0.2324
vn 0.0637 0.9554 0.2882
vn 0.1150 0.9157 0.3850
vn 0.2213 0.8790 0.4223
vn 0.3257 0.8924 0.3123
vn 0.1029 0.9525 0.2867
vn 0.3857 0.8838 0.2649
vn 0.1328 0.9742 0.1825
vn 0.1993 0.9186 0.3414
vn 0.2983 0.8828 0.3629
vn 0.0701 0.9574 0.2801
vn 0.0993 0.9640 0.2468
vn 0.1795 0.9575 0.2259
vn 0.3158 0.8937 0.3187
vn 0.1523 0.9766 0.1519
vn 0.1889 0.9762 0.1069
vn 0.2915 0.9500 0.1119
vn 0.4713 0.8725 0.1287
vn 0.1191 0.9409 -0.3172
vn 0.1176 0.9622 -0.2455
vn 0.1675 0.9515 -0.2580
vn 0.1186 0.9550 -0.2720
vn 0.1217 0.9589 -0.2563
vn -0.3296 0.9367 -0.1185
vn -0.3283 0.9372 -0.1179
vn -0.3025 0.9481 -0.0984
vn -0.3163 0.9436 -0.0979
vn -0.3252 0.9388 -0.1136
vn -0.3195 0.9413 0.1092
vn -0.2864 0.9560 0.0637
vn -0.2382 0.9637 0.1209
vn -0.2543 0.9599 0.1178
vn -0.2922 0.9540 0.0674
vn 0.1529 0.9416 0.3000
vn 0.1563 0.9549 0.2526
vn 0.1234 0.9628 0.2405
vn 0.1452 0.9586 0.2449
vn 0.1589 0.9521 0.2613
vn 0.3841 0.9230 -0.0230
vn 0.3462 0.9329 -0.0989
vn 0.2747 0.9615 -0.0038
vn 0.3000 0.9536 -0.0247
vn 0.3266 0.9436 -0.0534
vn 0.2225 0.7891 0.5726
vn -0.4580 0.8752 0.1555
vn -0.4855 0.8688 -0.0970
vn 0.1305 0.7941 -0.5936
vn 0.7070 0.6987 -0.1097
vn -0.1328 0.9579 -0.2544
vn 0.0875 0.9665 -0.2414
vn 0.4427 0.8720 -0.2086
vn -0.0335 0.9632 -0.2669
vn 0.0032 0.9704 -0.2414
vn 0.2450 0.9133 -0.3253
vn 0.2486 0.8770 -0.4111
vn 0.2146 0.8913 -0.3995
vn 0.2178 0.8670 -0.4481
vn 0.5774 0.7718 -0.2663
vn 0.5381 0.7722 -0.3378
vn 0.3301 0.8362 -0.4380
vn 0.3110 0.8402 -0.4442
vn 0.2515 0.8445 -0.4728
vn 0.1890 0.7954 -0.5758
vn -0.2138 0.9564 -0.1988
vn -0.0584 0.9740 -0.2188
vn 0.0609 0.8681 -0.4926
vn -0.1869 0.9769 -0.1040
vn -0.3633 0.9275 -0.0882
vn -0.0599 0.9278 -0.3682
vn -0.1063 0.9311 -0.3490
vn -0.3409 0.9382 -0.0600
vn -0.4972 0.8666 -0.0415
vn 0.0459 0.8221 -0.5674
vn -0.0112 0.8323 -0.5542
vn -0.1135 0.8637 -0.4910
vn -0.3075 0.8318 -0.4621
vn -0.5183 0.8326 -0.1954
vn -0.5069 0.8491 -0.1487
vn -0.3393 0.9356 -0.0981
vn -0.4453 0.8935 -0.0583
vn -0.5205 0.8538 -0.0081
vn -0.4244 0.9031 -0.0658
vn -0.3968 0.9173 -0.0349
vn -0.5167 0.8528 -0.0759
vn -0.4330 0.8752 -0.2158
vn -0.3529 0.9314 -0.0891
vn -0.4120 0.9013 0.1337
vn -0.4598 0.8878 -0.0199
vn -0.3782 0.9166 -0.1298
vn -0.4359 0.8710 -0.2266
vn -0.5098 0.8564 -0.0824
vn -0.4375 0.8878 0.1429
vn -0.4239 0.8808 0.2110
vn -0.3539 0.9256 -0.1340
vn -0.2361 0.9508 0.2003
vn -0.3947 0.9050 0.1589
vn -0.2640 0.9358 0.2336
vn -0.2460 0.9324 0.2648
vn -0.1886 0.9691 0.1589
vn -0.1014 0.9598 0.2617
vn -0.1981 0.9310 0.3065
vn 0.0320 0.8475 0.5298
vn -0.4215 0.8894 0.1770
vn -0.2834 0.8992 0.3334
vn -0.1089 0.9218 0.3720
vn 0.0152 0.8726 0.4882
vn 0.0740 0.8510 0.5199
vn 0.1775 0.8101 0.5588
vn -0.1362 0.9149 -0.3800
vn -0.1777 0.9493 0.2595
vn 0.1236 0.8223 0.5555
vn 0.0047 0.9974 -0.0713
vn 0.1179 0.9899 -0.0786
vn 0.0998 0.8720 0.4792
vn 0.3745 0.8278 0.4177
vn 0.3792 0.9129 0.1514
vn 0.4773 0.8737 0.0944
vn 0.2613 0.7543 0.6023
vn 0.4849 0.7193 0.4974
vn 0.5203 0.6950 0.4962
vn 0.5762 0.6901 0.4379
vn 0.6347 0.7345 0.2401
vn 0.7092 0.6972 0.1042
vn 0.5609 0.8243 -0.0776
vn 0.3700 0.9077 -0.1981
vn 0.5209 0.8160 -0.2506
vn 0.5428 0.7780 -0.3165
vn 0.3872 0.8454 -0.3681
vn 0.4563 0.8350 -0.3074
vn 0.5189 0.7703 -0.3708
vn 0.3577 0.8228 -0.4417
vn 0.4210 0.8958 -0.1428
vn 0.2177 0.9431 -0.2513
vn 0.2909 0.8709 -0.3962
vn 0.1305 0.8723 -0.4713
vn 0.1307 0.8971 -0.4220
vn 0.0647 0.9679 -0.2429
vn 0.0714 0.9210 -0.3829
vn 0.0075 0.9045 -0.4265
vn 0.0114 0.9731 -0.2303
vn -0.0682 0.9754 -0.2097
vn -0.1160 0.9206 -0.3730
vn -0.2407 0.8974 -0.3698
vn -0.1549 0.9719 -0.1772
vn -0.2135 0.9652 -0.1512
vn -0.3182 0.9085 -0.2710
vn -0.4297 0.8925 -0.1370
vn -0.3392 0.9378 -0.0744
vn -0.3162 0.9429 -0.1049
vn -0.2964 0.9510 -0.0881
vn -0.3055 0.9456 -0.1115
vn -0.2968 0.9459 -0.1308
vn -0.2778 0.9573 -0.0793
vn -0.3253 0.9414 -0.0885
vn -0.3909 0.9169 -0.0803
vn -0.2765 0.9606 -0.0285
vn -0.2518 0.9649 0.0742
vn -0.3858 0.9183 0.0893
vn -0.3716 0.9107 0.1802
vn -0.4025 0.9076 0.1198
vn -0.2215 0.9685 0.1141
vn -0.3119 0.9299 0.1951
vn -0.2377 0.9268 0.2908
vn -0.1488 0.9746 0.1674
vn -0.0640 0.9757 0.2098
vn -0.1050 0.9327 0.3451
vn 0.0179 0.9130 0.4076
vn -0.0025 0.9735 0.2286
vn 0.0573 0.9705 0.2343
vn 0.0727 0.9256 0.3715
vn 0.1592 0.9031 0.3988
vn 0.1682 0.8787 0.4468
vn 0.1492 0.9449 0.2913
vn 0.2579 0.8808 0.3971
vn 0.3501 0.8719 0.3424
vn 0.0741 0.9558 0.2846
vn 0.1314 0.9716 0.1967
vn 0.2775 0.9159 0.2900
vn 0.3685 0.8648 0.3411
vn 0.1511 0.9764 0.1546
vn 0.2204 0.9725 0.0746
vn 0.4084 0.8952 0.1781
vn 0.5279 0.8470 0.0627
vn 0.1311 0.9151 -0.3814
vn 0.1581 0.9514 -0.2643
vn 0.1114 0.9548 -0.2755
vn 0.1215 0.9611 -0.2481
vn -0.3487 0.9295 -0.1203
vn -0.3082 0.9468 -0.0927
vn -0.3215 0.9400 -0.1139
vn -0.3283 0.9371 -0.1184
vn -0.3554 0.9263 0.1249
vn -0.2412 0.9621 0.1270
vn -0.2899 0.9523 0.0954
vn -0.2919 0.9546 0.0589
vn 0.1695 0.9156 0.3648
vn 0.1339 0.9614 0.2402
vn 0.1444 0.9552 0.2584
vn 0.1608 0.9516 0.2618
vn 0.4888 0.8721 -0.0209
vn 0.2857 0.9582 -0.0155
vn 0.3151 0.9487 -0.0245
vn 0.3564 0.9273 -0.1146
vt 0.181819 0.314921
vt 0.204546 0.314921
vt 0.204546 0.328043
vt 0.193183 0.334604
vt 0.227274 0.314921
vt 0.215910 0.334604
vt 0.204546 0.354286
vt 0.000000 0.314921
vt 0.022727 0.314921
vt 0.022727 0.328043
vt 0.011364 0.334604
vt 0.045455 0.314921
vt 0.034091 0.334604
vt 0.022727 0.354286
vt 0.727273 0.314921
vt 0.750000 0.314921
vt 0.750000 0.328043
vt 0.738637 0.334604
vt 0.772728 0.314921
vt 0.761364 0.334604
vt 0.750000 0.354286
vt 0.545455 0.314921
vt 0.568182 0.314921
vt 0.568182 0.328043
vt 0.556819 0.334604
vt 0.590910 0.314921
vt 0.579546 0.334604
vt 0.568182 0.354286
vt 0.363637 0.314921
vt 0.386364 0.314921
vt 0.386364 0.328043
vt 0.375001 0.334604
vt 0.409092 0.314921
vt 0.397728 0.334604
vt 0.386364 0.354286
vt 0.431819 0.433017
vt 0.454546 0.433017
vt 0.454546 0.446139
vt 0.443182 0.452699
vt 0.477273 0.433017
vt 0.465910 0.452699
vt 0.454546 0.472382
vt 0.409091 0.393651
vt 0.431819 0.393652
vt 0.431819 0.406773
vt 0.420455 0.413334
vt 0.454546 0.393652
vt 0.443182 0.413334
vt 0.409092 0.354286
vt 0.409091 0.367408
vt 0.397728 0.373969
vt 0.431819 0.354286
vt 0.420455 0.373969
vt 0.454546 0.419895
vt 0.465910 0.413334
vt 0.477273 0.393652
vt 0.477273 0.406773
vt 0.500000 0.393651
vt 0.488637 0.413334
vt 0.431819 0.380530
vt 0.443182 0.373969
vt 0.454546 0.354286
vt 0.454546 0.367408
vt 0.477273 0.354286
vt 0.465910 0.373969
vt 0.477273 0.380530
vt 0.488637 0.373969
vt 0.500001 0.354286
vt 0.500000 0.367408
vt 0.522728 0.354286
vt 0.511364 0.373969
vt 0.409092 0.341165
vt 0.420455 0.334604
vt 0.431819 0.314921
vt 0.431819 0.328043
vt 0.454546 0.314921
vt 0.443182 0.334604
vt 0.454546 0.341165
vt 0.465910 0.334604
vt 0.477273 0.314921
vt 0.477273 0.328043
vt 0.500001 0.314921
vt 0.488637 0.334604
vt 0.500001 0.341165
vt 0.511364 0.334604
vt 0.522728 0.314921
vt 0.522728 0.328043
vt 0.534091 0.334604
vt 0.613637 0.433017
vt 0.636364 0.433017
vt 0.636364 0.446139
vt 0.625000 0.452699
vt 0.659091 0.433017
vt 0.647728 0.452699
vt 0.636364 0.472382
vt 0.590909 0.393651
vt 0.613637 0.393652
vt 0.613637 0.406773
vt 0.602273 0.413334
vt 0.636364 0.393652
vt 0.625000 0.413334
vt 0.590910 0.354286
vt 0.590909 0.367408
vt 0.579546 0.373969
vt 0.613637 0.354286
vt 0.602273 0.373969
vt 0.636364 0.419895
vt 0.647728 0.413334
vt 0.659091 0.393652
vt 0.659091 0.406773
vt 0.681818 0.393651
vt 0.670455 0.413334
vt 0.613637 0.380530
vt 0.625000 0.373969
vt 0.636364 0.354286
vt 0.636364 0.367408
vt 0.659091 0.354286
vt 0.647728 0.373969
vt 0.659091 0.380530
vt 0.670455 0.373969
vt 0.681819 0.354286
vt 0.681818 0.367408
vt 0.704546 0.354286
vt 0.693182 0.373969
vt 0.590909 0.341165
vt 0.602273 0.334604
vt 0.613637 0.314921
vt 0.613637 0.328043
vt 0.636364 0.314921
vt 0.625000 0.334604
vt 0.636364 0.341165
vt 0.647728 0.334604
vt 0.659091 0.314921
vt 0.659091 0.328043
vt 0.681819 0.314921
vt 0.670455 0.334604
vt 0.681819 0.341165
vt 0.693182 0.334604
vt 0.704546 0.314921
vt 0.704546 0.328043
vt 0.715909 0.334604
vt 0.795455 0.433017
vt 0.818182 0.433017
vt 0.818182 0.446139
vt 0.806818 0.452699
vt 0.840909 0.433017
vt 0.829546 0.452699
vt 0.818182 0.472382
vt 0.772727 0.393651
vt 0.795455 0.393652
vt 0.795455 0.406773
vt 0.784091 0.413334
vt 0.818182 0.393652
vt 0.806818 0.413334
vt 0.772728 0.354286
vt 0.772727 0.367408
vt 0.761364 0.373969
vt 0.795455 0.354286
vt 0.784091 0.373969
vt 0.818182 0.419895
vt 0.829546 0.413334
vt 0.840909 0.393652
vt 0.840909 0.406773
vt 0.863636 0.393651
vt 0.852273 0.413334
vt 0.795455 0.380530
vt 0.806818 0.373969
vt 0.818182 0.354286
vt 0.818182 0.367408
vt 0.840909 0.354286
vt 0.829546 0.373969
vt 0.840909 0.380530
vt 0.852273 0.373969
vt 0.863637 0.354286
vt 0.863636 0.367408
vt 0.886364 0.354286
vt 0.875000 0.373969
vt 0.772728 0.341165
vt 0.784091 0.334604
vt 0.795455 0.314921
vt 0.795455 0.328043
vt 0.818182 0.314921
vt 0.806818 0.334604
vt 0.818182 0.341165
vt 0.829546 0.334604
vt 0.840909 0.314921
vt 0.840909 0.328043
vt 0.863637 0.314921
vt 0.852273 0.334604
vt 0.863637 0.341165
vt 0.875000 0.334604
vt 0.886364 0.314921
vt 0.886364 0.328043
vt 0.909091 0.314921
vt 0.897727 0.334604
vt 0.068182 0.433017
vt 0.090910 0.433017
vt 0.090910 0.446139
vt 0.079546 0.452699
vt 0.113637 0.433017
vt 0.102274 0.452699
vt 0.090910 0.472382
vt 0.045455 0.393651
vt 0.068182 0.393652
vt 0.068182 0.406773
vt 0.056819 0.413334
vt 0.090910 0.393652
vt 0.079546 0.413334
vt 0.045455 0.354286
vt 0.045455 0.367408
vt 0.034091 0.373969
vt 0.068182 0.354286
vt 0.056819 0.373969
vt 0.090910 0.419895
vt 0.102274 0.413334
vt 0.113637 0.393652
vt 0.113637 0.406773
vt 0.136365 0.393651
vt 0.125001 0.413334
vt 0.068182 0.380530
vt 0.079546 0.373969
vt 0.090910 0.354286
vt 0.090910 0.367408
vt 0.113637 0.354286
vt 0.102273 0.373969
vt 0.113637 0.380530
vt 0.125001 0.373969
vt 0.136364 0.354286
vt 0.136364 0.367408
vt 0.159092 0.354286
vt 0.147728 0.373969
vt 0.045455 0.341165
vt 0.056819 0.334604
vt 0.068182 0.314921
vt 0.068182 0.328043
vt 0.090910 0.314921
vt 0.079546 0.334604
vt 0.090910 0.341165
vt 0.102273 0.334604
vt 0.113637 0.314921
vt 0.113637 0.328043
vt 0.136364 0.314921
vt 0.125001 0.334604
vt 0.136364 0.341165
vt 0.147728 0.334604
vt 0.159092 0.314921
vt 0.159092 0.328043
vt 0.170455 0.334604
vt 0.250001 0.433017
vt 0.272728 0.433017
vt 0.272728 0.446139
vt 0.261364 0.452699
vt 0.295455 0.433017
vt 0.284092 0.452699
vt 0.272728 0.472382
vt 0.227273 0.393651
vt 0.250001 0.393652
vt 0.250001 0.406773
vt 0.238637 0.413334
vt 0.272728 0.393652
vt 0.261364 0.413334
vt 0.227274 0.354286
vt 0.227274 0.367408
vt 0.215910 0.373969
vt 0.250001 0.354286
vt 0.238637 0.373969
vt 0.272728 0.419895
vt 0.284092 0.413334
vt 0.295455 0.393652
vt 0.295455 0.406773
vt 0.318182 0.393651
vt 0.306819 0.413334
vt 0.250001 0.380530
vt 0.261364 0.373969
vt 0.272728 0.354286
vt 0.272728 0.367408
vt 0.295455 0.354286
vt 0.284092 0.373969
vt 0.295455 0.380530
vt 0.306819 0.373969
vt 0.318182 0.354286
vt 0.318182 0.367408
vt 0.340910 0.354286
vt 0.329546 0.373969
vt 0.227274 0.341165
vt 0.238637 0.334604
vt 0.250001 0.314921
vt 0.250001 0.328043
vt 0.272728 0.314921
vt 0.261364 0.334604
vt 0.272728 0.341165
vt 0.284092 0.334604
vt 0.295455 0.314921
vt 0.295455 0.328043
vt 0.318183 0.314921
vt 0.306819 0.334604
vt 0.318182 0.341165
vt 0.329546 0.334604
vt 0.340910 0.314921
vt 0.340910 0.328043
vt 0.352273 0.334604
vt 0.386364 0.275556
vt 0.397728 0.295239
vt 0.386364 0.301799
vt 0.375001 0.295239
vt 0.409091 0.236191
vt 0.420455 0.255874
vt 0.409091 0.262434
vt 0.397728 0.255874
vt 0.431819 0.275556
vt 0.409092 0.275556
vt 0.409091 0.288678
vt 0.420455 0.295239
vt 0.443182 0.295239
vt 0.431819 0.301799
vt 0.431819 0.236191
vt 0.431819 0.249313
vt 0.454546 0.236191
vt 0.443182 0.255874
vt 0.465910 0.255874
vt 0.454546 0.262434
vt 0.477273 0.275556
vt 0.454546 0.275556
vt 0.454546 0.288678
vt 0.465910 0.295239
vt 0.488637 0.295239
vt 0.477273 0.301799
vt 0.477273 0.236191
vt 0.477273 0.249313
vt 0.500000 0.236191
vt 0.488637 0.255874
vt 0.511364 0.255874
vt 0.500001 0.262434
vt 0.522728 0.275556
vt 0.500001 0.275556
vt 0.500001 0.288678
vt 0.511364 0.295239
vt 0.534091 0.295239
vt 0.522728 0.301799
vt 0.568182 0.275556
vt 0.579546 0.295239
vt 0.568182 0.301799
vt 0.556819 0.295239
vt 0.590909 0.236191
vt 0.602273 0.255874
vt 0.590910 0.262434
vt 0.579546 0.255874
vt 0.613637 0.275556
vt 0.590910 0.275556
vt 0.590909 0.288678
vt 0.602273 0.295239
vt 0.625000 0.295239
vt 0.613637 0.301799
vt 0.613637 0.236191
vt 0.613637 0.249313
vt 0.636364 0.236191
vt 0.625000 0.255874
vt 0.647728 0.255874
vt 0.636364 0.262434
vt 0.659091 0.275556
vt 0.636364 0.275556
vt 0.636364 0.288678
vt 0.647728 0.295239
vt 0.670455 0.295239
vt 0.659091 0.301799
vt 0.659091 0.236191
vt 0.659091 0.249313
vt 0.681818 0.236191
vt 0.670455 0.255874
vt 0.693182 0.255874
vt 0.681819 0.262434
vt 0.704546 0.275556
vt 0.681819 0.275556
vt 0.681818 0.288678
vt 0.693182 0.295239
vt 0.715909 0.295239
vt 0.704546 0.301799
vt 0.750000 0.275556
vt 0.761364 0.295239
vt 0.750000 0.301799
vt 0.738637 0.295239
vt 0.772727 0.236191
vt 0.784091 0.255874
vt 0.772728 0.262434
vt 0.761364 0.255874
vt 0.795455 0.275556
vt 0.772728 0.275556
vt 0.772728 0.288678
vt 0.784091 0.295239
vt 0.806818 0.295239
vt 0.795455 0.301799
vt 0.795455 0.236191
vt 0.795455 0.249313
vt 0.818182 0.236191
vt 0.806818 0.255874
vt 0.829546 0.255874
vt 0.818182 0.262434
vt 0.840909 0.275556
vt 0.818182 0.275556
vt 0.818182 0.288678
vt 0.829546 0.295239
vt 0.852273 0.295239
vt 0.840909 0.301799
vt 0.840909 0.236191
vt 0.840909 0.249313
vt 0.863636 0.236191
vt 0.852273 0.255874
vt 0.875000 0.255874
vt 0.863637 0.262434
vt 0.886364 0.275556
vt 0.863637 0.275556
vt 0.863636 0.288678
vt 0.875000 0.295239
vt 0.897727 0.295239
vt 0.886364 0.301799
vt 0.022727 0.275556
vt 0.034091 0.295239
vt 0.022727 0.301799
vt 0.011364 0.295239
vt 0.045455 0.236191
vt 0.056819 0.255874
vt 0.045455 0.262434
vt 0.034091 0.255874
vt 0.068182 0.275556
vt 0.045455 0.275556
vt 0.045455 0.288678
vt 0.056819 0.295239
vt 0.079546 0.295239
vt 0.068182 0.301799
vt 0.068182 0.236191
vt 0.068182 0.249313
vt 0.090910 0.236191
vt 0.079546 0.255874
vt 0.102273 0.255874
vt 0.090910 0.262434
vt 0.113637 0.275556
vt 0.090910 0.275556
vt 0.090910 0.288678
vt 0.102273 0.295239
vt 0.125001 0.295239
vt 0.113637 0.301799
vt 0.113637 0.236191
vt 0.113637 0.249313
vt 0.136364 0.236191
vt 0.125001 0.255874
vt 0.147728 0.255874
vt 0.136364 0.262434
vt 0.159092 0.275556
vt 0.136364 0.275556
vt 0.136364 0.288678
vt 0.147728 0.295239
vt 0.170455 0.295239
vt 0.159092 0.301799
vt 0.204546 0.275556
vt 0.215910 0.295239
vt 0.204546 0.301799
vt 0.193183 0.295239
vt 0.227273 0.236191
vt 0.238637 0.255874
vt 0.227274 0.262434
vt 0.215910 0.255874
vt 0.250001 0.275556
vt 0.227274 0.275556
vt 0.227273 0.288678
vt 0.238637 0.295239
vt 0.261364 0.295239
vt 0.250001 0.301799
vt 0.250001 0.236191
vt 0.250001 0.249313
vt 0.272728 0.236191
vt 0.261364 0.255874
vt 0.284092 0.255874
vt 0.272728 0.262434
vt 0.295455 0.275556
vt 0.272728 0.275556
vt 0.272728 0.288678
vt 0.284092 0.295239
vt 0.306819 0.295239
vt 0.295455 0.301799
vt 0.295455 0.236191
vt 0.295455 0.249313
vt 0.318182 0.236191
vt 0.306819 0.255874
vt 0.329546 0.255874
vt 0.318182 0.262434
vt 0.340910 0.275556
vt 0.318182 0.275556
vt 0.318182 0.288678
vt 0.329546 0.295239
vt 0.352273 0.295239
vt 0.340910 0.301799
vt 0.545455 0.275556
vt 0.545455 0.288678
vt 0.522728 0.236191
vt 0.522728 0.249313
vt 0.545455 0.236191
vt 0.534091 0.255874
vt 0.545455 0.262434
vt 0.556819 0.255874
vt 0.568182 0.236191
vt 0.568182 0.249313
vt 0.727273 0.275556
vt 0.727273 0.288678
vt 0.704546 0.236191
vt 0.704546 0.249313
vt 0.727273 0.236191
vt 0.715909 0.255874
vt 0.727273 0.262434
vt 0.738637 0.255874
vt 0.750000 0.236191
vt 0.750000 0.249313
vt 0.909091 0.275556
vt 0.909091 0.288678
vt 0.931818 0.275556
vt 0.920455 0.295239
vt 0.886364 0.236191
vt 0.886364 0.249313
vt 0.909091 0.236191
vt 0.897727 0.255874
vt 0.909091 0.262434
vt 0.920455 0.255874
vt 0.931818 0.236191
vt 0.931818 0.249313
vt 0.954546 0.236191
vt 0.943182 0.255874
vt 0.181819 0.275556
vt 0.181819 0.288678
vt 0.159092 0.236191
vt 0.159092 0.249313
vt 0.181819 0.236191
vt 0.170455 0.255874
vt 0.181819 0.262434
vt 0.193183 0.255874
vt 0.204546 0.236191
vt 0.204546 0.249313
vt 0.363637 0.275556
vt 0.363637 0.288678
vt 0.340910 0.236191
vt 0.340910 0.249313
vt 0.363637 0.236191
vt 0.352273 0.255874
vt 0.363637 0.262434
vt 0.375001 0.255874
vt 0.386364 0.236191
vt 0.386364 0.249313
s 1
f 1/1/1 97/2/97 342/3/342 102/4/102
f 29/5/29 236/6/236 342/3/342 97/2/97
f 44/7/44 102/4/102 342/3/342 236/6/236
f 2/8/2 98/9/98 343/10/343 104/11/104
f 32/12/32 218/13/218 343/10/343 98/9/98
f 50/14/50 104/11/104 343/10/343 218/13/218
f 3/15/3 99/16/99 344/17/344 105/18/105
f 35/19/35 200/20/200 344/17/344 99/16/99
f 53/21/53 105/18/105 344/17/344 200/20/200
f 4/22/4 100/23/100 345/24/345 106/25/106
f 38/26/38 182/27/182 345/24/345 100/23/100
f 56/28/56 106/25/106 345/24/345 182/27/182
f 5/29/5 101/30/101 346/31/346 140/32/140
f 41/33/41 164/34/164 346/31/346 101/30/101
f 45/35/45 140/32/140 346/31/346 164/34/164
f 47/36/47 152/37/152 347/38/347 103/39/103
f 54/40/54 149/41/149 347/38/347 152/37/152
f 6/42/6 103/39/103 347/38/347 149/41/149
f 46/43/46 154/44/154 348/45/348 142/46/142
f 57/47/57 158/48/158 348/45/348 154/44/154
f 47/36/47 142/46/142 348/45/348 158/48/158
f 45/35/45 156/49/156 349/50/349 141/51/141
f 58/52/58 160/53/160 349/50/349 156/49/156
f 46/43/46 141/51/141 349/50/349 160/53/160
f 47/36/47 158/48/158 350/54/350 152/37/152
f 57/47/57 159/55/159 350/54/350 158/48/158
f 54/40/54 152/37/152 350/54/350 159/55/159
f 57/47/57 153/56/153 351/57/351 159/55/159
f 55/58/55 150/59/150 351/57/351 153/56/153
f 54/40/54 159/55/159 351/57/351 150/59/150
f 46/43/46 160/53/160 352/60/352 154/44/154
f 58/52/58 161/61/161 352/60/352 160/53/160
f 57/47/57 154/44/154 352/60/352 161/61/161
f 58/52/58 157/62/157 353/63/353 161/61/161
f 59/64/59 162/65/162 353/63/353 157/62/157
f 57/47/57 161/61/161 353/63/353 162/65/162
f 57/47/57 162/65/162 354/66/354 153/56/153
f 59/64/59 163/67/163 354/66/354 162/65/162
f 55/58/55 153/56/153 354/66/354 163/67/163
f 59/64/59 155/68/155 355/69/355 163/67/163
f 56/70/56 151/71/151 355/69/355 155/68/155
f 55/58/55 163/67/163 355/69/355 151/71/151
f 45/35/45 164/34/164 356/72/356 156/49/156
f 41/33/41 165/73/165 356/72/356 164/34/164
f 58/52/58 156/49/156 356/72/356 165/73/165
f 41/33/41 136/74/136 357/75/357 165/73/165
f 40/76/40 166/77/166 357/75/357 136/74/136
f 58/52/58 165/73/165 357/75/357 166/77/166
f 58/52/58 166/77/166 358/78/358 157/62/157
f 40/76/40 167/79/167 358/78/358 166/77/166
f 59/64/59 157/62/157 358/78/358 167/79/167
f 40/76/40 135/80/135 359/81/359 167/79/167
f 39/82/39 168/83/168 359/81/359 135/80/135
f 59/64/59 167/79/167 359/81/359 168/83/168
f 59/64/59 168/83/168 360/84/360 155/68/155
f 39/82/39 169/85/169 360/84/360 168/83/168
f 56/70/56 155/68/155 360/84/360 169/85/169
f 39/82/39 134/86/134 361/87/361 169/85/169
f 4/22/4 106/88/106 361/87/361 134/86/134
f 56/70/56 169/85/169 361/87/361 106/88/106
f 54/89/54 170/90/170 362/91/362 149/92/149
f 51/93/51 146/94/146 362/91/362 170/90/170
f 6/95/6 149/92/149 362/91/362 146/94/146
f 55/96/55 172/97/172 363/98/363 150/99/150
f 60/100/60 176/101/176 363/98/363 172/97/172
f 54/89/54 150/99/150 363/98/363 176/101/176
f 56/28/56 174/102/174 364/103/364 151/104/151
f 61/105/61 178/106/178 364/103/364 174/102/174
f 55/96/55 151/104/151 364/103/364 178/106/178
f 54/89/54 176/101/176 365/107/365 170/90/170
f 60/100/60 177/108/177 365/107/365 176/101/176
f 51/93/51 170/90/170 365/107/365 177/108/177
f 60/100/60 171/109/171 366/110/366 177/108/177
f 52/111/52 147/112/147 366/110/366 171/109/171
f 51/93/51 177/108/177 366/110/366 147/112/147
f 55/96/55 178/106/178 367/113/367 172/97/172
f 61/105/61 179/114/179 367/113/367 178/106/178
f 60/100/60 172/97/172 367/113/367 179/114/179
f 61/105/61 175/115/175 368/116/368 179/114/179
f 62/117/62 180/118/180 368/116/368 175/115/175
f 60/100/60 179/114/179 368/116/368 180/118/180
f 60/100/60 180/118/180 369/119/369 171/109/171
f 62/117/62 181/120/181 369/119/369 180/118/180
f 52/111/52 171/109/171 369/119/369 181/120/181
f 62/117/62 173/121/173 370/122/370 181/120/181
f 53/123/53 148/124/148 370/122/370 173/121/173
f 52/111/52 181/120/181 370/122/370 148/124/148
f 56/28/56 182/27/182 371/125/371 174/102/174
f 38/26/38 183/126/183 371/125/371 182/27/182
f 61/105/61 174/102/174 371/125/371 183/126/183
f 38/26/38 133/127/133 372/128/372 183/126/183
f 37/129/37 184/130/184 372/128/372 133/127/133
f 61/105/61 183/126/183 372/128/372 184/130/184
f 61/105/61 184/130/184 373/131/373 175/115/175
f 37/129/37 185/132/185 373/131/373 184/130/184
f 62/117/62 175/115/175 373/131/373 185/132/185
f 37/129/37 132/133/132 374/134/374 185/132/185
f 36/135/36 186/136/186 374/134/374 132/133/132
f 62/117/62 185/132/185 374/134/374 186/136/186
f 62/117/62 186/136/186 375/137/375 173/121/173
f 36/135/36 187/138/187 375/137/375 186/136/186
f 53/123/53 173/121/173 375/137/375 187/138/187
f 36/135/36 131/139/131 376/140/376 187/138/187
f 3/15/3 105/141/105 376/140/376 131/139/131
f 53/123/53 187/138/187 376/140/376 105/141/105
f 51/142/51 188/143/188 377/144/377 146/145/146
f 48/146/48 143/147/143 377/144/377 188/143/188
f 6/148/6 146/145/146 377/144/377 143/147/143
f 52/149/52 190/150/190 378/151/378 147/152/147
f 63/153/63 194/154/194 378/151/378 190/150/190
f 51/142/51 147/152/147 378/151/378 194/154/194
f 53/21/53 192/155/192 379/156/379 148/157/148
f 64/158/64 196/159/196 379/156/379 192/155/192
f 52/149/52 148/157/148 379/156/379 196/159/196
f 51/142/51 194/154/194 380/160/380 188/143/188
f 63/153/63 195/161/195 380/160/380 194/154/194
f 48/146/48 188/143/188 380/160/380 195/161/195
f 63/153/63 189/162/189 381/163/381 195/161/195
f 49/164/49 144/165/144 381/163/381 189/162/189
f 48/146/48 195/161/195 381/163/381 144/165/144
f 52/149/52 196/159/196 382/166/382 190/150/190
f 64/158/64 197/167/197 382/166/382 196/159/196
f 63/153/63 190/150/190 382/166/382 197/167/197
f 64/158/64 193/168/193 383/169/383 197/167/197
f 65/170/65 198/171/198 383/169/383 193/168/193
f 63/153/63 197/167/197 383/169/383 198/171/198
f 63/153/63 198/171/198 384/172/384 189/162/189
f 65/170/65 199/173/199 384/172/384 198/171/198
f 49/164/49 189/162/189 384/172/384 199/173/199
f 65/170/65 191/174/191 385/175/385 199/173/199
f 50/176/50 145/177/145 385/175/385 191/174/191
f 49/164/49 199/173/199 385/175/385 145/177/145
f 53/21/53 200/20/200 386/178/386 192/155/192
f 35/19/35 201/179/201 386/178/386 200/20/200
f 64/158/64 192/155/192 386/178/386 201/179/201
f 35/19/35 130/180/130 387/181/387 201/179/201
f 34/182/34 202/183/202 387/181/387 130/180/130
f 64/158/64 201/179/201 387/181/387 202/183/202
f 64/158/64 202/183/202 388/184/388 193/168/193
f 34/182/34 203/185/203 388/184/388 202/183/202
f 65/170/65 193/168/193 388/184/388 203/185/203
f 34/182/34 129/186/129 389/187/389 203/185/203
f 33/188/33 204/189/204 389/187/389 129/186/129
f 65/170/65 203/185/203 389/187/389 204/189/204
f 65/170/65 204/189/204 390/190/390 191/174/191
f 33/188/33 205/191/205 390/190/390 204/189/204
f 50/176/50 191/174/191 390/190/390 205/191/205
f 33/188/33 128/192/128 391/193/391 205/191/205
f 2/194/2 104/195/104 391/193/391 128/192/128
f 50/176/50 205/191/205 391/193/391 104/195/104
f 48/196/48 206/197/206 392/198/392 143/199/143
f 42/200/42 137/201/137 392/198/392 206/197/206
f 6/202/6 143/199/143 392/198/392 137/201/137
f 49/203/49 208/204/208 393/205/393 144/206/144
f 66/207/66 212/208/212 393/205/393 208/204/208
f 48/196/48 144/206/144 393/205/393 212/208/212
f 50/14/50 210/209/210 394/210/394 145/211/145
f 67/212/67 214/213/214 394/210/394 210/209/210
f 49/203/49 145/211/145 394/210/394 214/213/214
f 48/196/48 212/208/212 395/214/395 206/197/206
f 66/207/66 213/215/213 395/214/395 212/208/212
f 42/200/42 206/197/206 395/214/395 213/215/213
f 66/207/66 207/216/207 396/217/396 213/215/213
f 43/218/43 138/219/138 396/217/396 207/216/207
f 42/200/42 213/215/213 396/217/396 138/219/138
f 49/203/49 214/213/214 397/220/397 208/204/208
f 67/212/67 215/221/215 397/220/397 214/213/214
f 66/207/66 208/204/208 397/220/397 215/221/215
f 67/212/67 211/222/211 398/223/398 215/221/215
f 68/224/68 216/225/216 398/223/398 211/222/211
f 66/207/66 215/221/215 398/223/398 216/225/216
f 66/207/66 216/225/216 399/226/399 207/216/207
f 68/224/68 217/227/217 399/226/399 216/225/216
f 43/218/43 207/216/207 399/226/399 217/227/217
f 68/224/68 209/228/209 400/229/400 217/227/217
f 44/230/44 139/231/139 400/229/400 209/228/209
f 43/218/43 217/227/217 400/229/400 139/231/139
f 50/14/50 218/13/218 401/232/401 210/209/210
f 32/12/32 219/233/219 401/232/401 218/13/218
f 67/212/67 210/209/210 401/232/401 219/233/219
f 32/12/32 127/234/127 402/235/402 219/233/219
f 31/236/31 220/237/220 402/235/402 127/234/127
f 67/212/67 219/233/219 402/235/402 220/237/220
f 67/212/67 220/237/220 403/238/403 211/222/211
f 31/236/31 221/239/221 403/238/403 220/237/220
f 68/224/68 211/222/211 403/238/403 221/239/221
f 31/236/31 126/240/126 404/241/404 221/239/221
f 30/242/30 222/243/222 404/241/404 126/240/126
f 68/224/68 221/239/221 404/241/404 222/243/222
f 68/224/68 222/243/222 405/244/405 209/228/209
f 30/242/30 223/245/223 405/244/405 222/243/222
f 44/230/44 209/228/209 405/244/405 223/245/223
f 30/242/30 125/246/125 406/247/406 223/245/223
f 1/1/1 102/248/102 406/247/406 125/246/125
f 44/230/44 223/245/223 406/247/406 102/248/102
f 42/249/42 224/250/224 407/251/407 137/252/137
f 47/253/47 103/254/103 407/251/407 224/250/224
f 6/255/6 137/252/137 407/251/407 103/254/103
f 43/256/43 226/257/226 408/258/408 138/259/138
f 69/260/69 230/261/230 408/258/408 226/257/226
f 42/249/42 138/259/138 408/258/408 230/261/230
f 44/7/44 228/262/228 409/263/409 139/264/139
f 70/265/70 232/266/232 409/263/409 228/262/228
f 43/256/43 139/264/139 409/263/409 232/266/232
f 42/249/42 230/261/230 410/267/410 224/250/224
f 69/260/69 231/268/231 410/267/410 230/261/230
f 47/253/47 224/250/224 410/267/410 231/268/231
f 69/260/69 225/269/225 411/270/411 231/268/231
f 46/271/46 142/272/142 411/270/411 225/269/225
f 47/253/47 231/268/231 411/270/411 142/272/142
f 43/256/43 232/266/232 412/273/412 226/257/226
f 70/265/70 233/274/233 412/273/412 232/266/232
f 69/260/69 226/257/226 412/273/412 233/274/233
f 70/265/70 229/275/229 413/276/413 233/274/233
f 71/277/71 234/278/234 413/276/413 229/275/229
f 69/260/69 233/274/233 413/276/413 234/278/234
f 69/260/69 234/278/234 414/279/414 225/269/225
f 71/277/71 235/280/235 414/279/414 234/278/234
f 46/271/46 225/269/225 414/279/414 235/280/235
f 71/277/71 227/281/227 415/282/415 235/280/235
f 45/283/45 141/284/141 415/282/415 227/281/227
f 46/271/46 235/280/235 415/282/415 141/284/141
f 44/7/44 236/6/236 416/285/416 228/262/228
f 29/5/29 237/286/237 416/285/416 236/6/236
f 70/265/70 228/262/228 416/285/416 237/286/237
f 29/5/29 124/287/124 417/288/417 237/286/237
f 28/289/28 238/290/238 417/288/417 124/287/124
f 70/265/70 237/286/237 417/288/417 238/290/238
f 70/265/70 238/290/238 418/291/418 229/275/229
f 28/289/28 239/292/239 418/291/418 238/290/238
f 71/277/71 229/275/229 418/291/418 239/292/239
f 28/289/28 123/293/123 419/294/419 239/292/239
f 27/295/27 240/296/240 419/294/419 123/293/123
f 71/277/71 239/292/239 419/294/419 240/296/240
f 71/277/71 240/296/240 420/297/420 227/281/227
f 27/295/27 241/298/241 420/297/420 240/296/240
f 45/283/45 227/281/227 420/297/420 241/298/241
f 27/295/27 122/299/122 421/300/421 241/298/241
f 5/29/5 140/301/140 421/300/421 122/299/122
f 45/283/45 241/298/241 421/300/421 140/301/140
f 10/302/10 242/303/242 422/304/422 92/305/92
f 41/33/41 101/30/101 422/304/422 242/303/242
f 5/29/5 92/305/92 422/304/422 101/30/101
f 9/306/9 244/307/244 423/308/423 109/309/109
f 72/310/72 247/311/247 423/308/423 244/307/244
f 10/302/10 109/309/109 423/308/423 247/311/247
f 10/302/10 247/311/247 424/312/424 242/303/242
f 72/310/72 248/313/248 424/312/424 247/311/247
f 41/33/41 242/303/242 424/312/424 248/313/248
f 72/310/72 243/314/243 425/315/425 248/313/248
f 40/76/40 136/74/136 425/315/425 243/314/243
f 41/33/41 248/313/248 425/315/425 136/74/136
f 9/306/9 249/316/249 426/317/426 244/307/244
f 73/318/73 250/319/250 426/317/426 249/316/249
f 72/310/72 244/307/244 426/317/426 250/319/250
f 73/318/73 246/320/246 427/321/427 250/319/250
f 74/322/74 251/323/251 427/321/427 246/320/246
f 72/310/72 250/319/250 427/321/427 251/323/251
f 72/310/72 251/323/251 428/324/428 243/314/243
f 74/322/74 252/325/252 428/324/428 251/323/251
f 40/76/40 243/314/243 428/324/428 252/325/252
f 74/322/74 245/326/245 429/327/429 252/325/252
f 39/82/39 135/80/135 429/327/429 245/326/245
f 40/76/40 252/325/252 429/327/429 135/80/135
f 73/318/73 253/328/253 430/329/430 246/320/246
f 24/330/24 254/331/254 430/329/430 253/328/253
f 74/322/74 246/320/246 430/329/430 254/331/254
f 24/330/24 120/332/120 431/333/431 254/331/254
f 23/334/23 255/335/255 431/333/431 120/332/120
f 74/322/74 254/331/254 431/333/431 255/335/255
f 74/322/74 255/335/255 432/336/432 245/326/245
f 23/334/23 256/337/256 432/336/432 255/335/255
f 39/82/39 245/326/245 432/336/432 256/337/256
f 23/334/23 119/338/119 433/339/433 256/337/256
f 4/22/4 134/86/134 433/339/433 119/338/119
f 39/82/39 256/337/256 433/339/433 134/86/134
f 26/340/26 257/341/257 434/342/434 96/343/96
f 38/26/38 100/23/100 434/342/434 257/341/257
f 4/22/4 96/343/96 434/342/434 100/23/100
f 25/344/25 259/345/259 435/346/435 121/347/121
f 75/348/75 262/349/262 435/346/435 259/345/259
f 26/340/26 121/347/121 435/346/435 262/349/262
f 26/340/26 262/349/262 436/350/436 257/341/257
f 75/348/75 263/351/263 436/350/436 262/349/262
f 38/26/38 257/341/257 436/350/436 263/351/263
f 75/348/75 258/352/258 437/353/437 263/351/263
f 37/129/37 133/127/133 437/353/437 258/352/258
f 38/26/38 263/351/263 437/353/437 133/127/133
f 25/344/25 264/354/264 438/355/438 259/345/259
f 76/356/76 265/357/265 438/355/438 264/354/264
f 75/348/75 259/345/259 438/355/438 265/357/265
f 76/356/76 261/358/261 439/359/439 265/357/265
f 77/360/77 266/361/266 439/359/439 261/358/261
f 75/348/75 265/357/265 439/359/439 266/361/266
f 75/348/75 266/361/266 440/362/440 258/352/258
f 77/360/77 267/363/267 440/362/440 266/361/266
f 37/129/37 258/352/258 440/362/440 267/363/267
f 77/360/77 260/364/260 441/365/441 267/363/267
f 36/135/36 132/133/132 441/365/441 260/364/260
f 37/129/37 267/363/267 441/365/441 132/133/132
f 76/356/76 268/366/268 442/367/442 261/358/261
f 20/368/20 269/369/269 442/367/442 268/366/268
f 77/360/77 261/358/261 442/367/442 269/369/269
f 20/368/20 117/370/117 443/371/443 269/369/269
f 19/372/19 270/373/270 443/371/443 117/370/117
f 77/360/77 269/369/269 443/371/443 270/373/270
f 77/360/77 270/373/270 444/374/444 260/364/260
f 19/372/19 271/375/271 444/374/444 270/373/270
f 36/135/36 260/364/260 444/374/444 271/375/271
f 19/372/19 116/376/116 445/377/445 271/375/271
f 3/15/3 131/139/131 445/377/445 116/376/116
f 36/135/36 271/375/271 445/377/445 131/139/131
f 22/378/22 272/379/272 446/380/446 95/381/95
f 35/19/35 99/16/99 446/380/446 272/379/272
f 3/15/3 95/381/95 446/380/446 99/16/99
f 21/382/21 274/383/274 447/384/447 118/385/118
f 78/386/78 277/387/277 447/384/447 274/383/274
f 22/378/22 118/385/118 447/384/447 277/387/277
f 22/378/22 277/387/277 448/388/448 272/379/272
f 78/386/78 278/389/278 448/388/448 277/387/277
f 35/19/35 272/379/272 448/388/448 278/389/278
f 78/386/78 273/390/273 449/391/449 278/389/278
f 34/182/34 130/180/130 449/391/449 273/390/273
f 35/19/35 278/389/278 449/391/449 130/180/130
f 21/382/21 279/392/279 450/393/450 274/383/274
f 79/394/79 280/395/280 450/393/450 279/392/279
f 78/386/78 274/383/274 450/393/450 280/395/280
f 79/394/79 276/396/276 451/397/451 280/395/280
f 80/398/80 281/399/281 451/397/451 276/396/276
f 78/386/78 280/395/280 451/397/451 281/399/281
f 78/386/78 281/399/281 452/400/452 273/390/273
f 80/398/80 282/401/282 452/400/452 281/399/281
f 34/182/34 273/390/273 452/400/452 282/401/282
f 80/398/80 275/402/275 453/403/453 282/401/282
f 33/188/33 129/186/129 453/403/453 275/402/275
f 34/182/34 282/401/282 453/403/453 129/186/129
f 79/394/79 283/404/283 454/405/454 276/396/276
f 16/406/16 284/407/284 454/405/454 283/404/283
f 80/398/80 276/396/276 454/405/454 284/407/284
f 16/406/16 114/408/114 455/409/455 284/407/284
f 15/410/15 285/411/285 455/409/455 114/408/114
f 80/398/80 284/407/284 455/409/455 285/411/285
f 80/398/80 285/411/285 456/412/456 275/402/275
f 15/410/15 286/413/286 456/412/456 285/411/285
f 33/188/33 275/402/275 456/412/456 286/413/286
f 15/410/15 113/414/113 457/415/457 286/413/286
f 2/194/2 128/192/128 457/415/457 113/414/113
f 33/188/33 286/413/286 457/415/457 128/192/128
f 18/416/18 287/417/287 458/418/458 94/419/94
f 32/12/32 98/9/98 458/418/458 287/417/287
f 2/8/2 94/419/94 458/418/458 98/9/98
f 17/420/17 289/421/289 459/422/459 115/423/115
f 81/424/81 292/425/292 459/422/459 289/421/289
f 18/416/18 115/423/115 459/422/459 292/425/292
f 18/416/18 292/425/292 460/426/460 287/417/287
f 81/424/81 293/427/293 460/426/460 292/425/292
f 32/12/32 287/417/287 460/426/460 293/427/293
f 81/424/81 288/428/288 461/429/461 293/427/293
f 31/236/31 127/234/127 461/429/461 288/428/288
f 32/12/32 293/427/293 461/429/461 127/234/127
f 17/420/17 294/430/294 462/431/462 289/421/289
f 82/432/82 295/433/295 462/431/462 294/430/294
f 81/424/81 289/421/289 462/431/462 295/433/295
f 82/432/82 291/434/291 463/435/463 295/433/295
f 83/436/83 296/437/296 463/435/463 291/434/291
f 81/424/81 295/433/295 463/435/463 296/437/296
f 81/424/81 296/437/296 464/438/464 288/428/288
f 83/436/83 297/439/297 464/438/464 296/437/296
f 31/236/31 288/428/288 464/438/464 297/439/297
f 83/436/83 290/440/290 465/441/465 297/439/297
f 30/242/30 126/240/126 465/441/465 290/440/290
f 31/236/31 297/439/297 465/441/465 126/240/126
f 82/432/82 298/442/298 466/443/466 291/434/291
f 12/444/12 299/445/299 466/443/466 298/442/298
f 83/436/83 291/434/291 466/443/466 299/445/299
f 12/444/12 111/446/111 467/447/467 299/445/299
f 11/448/11 300/449/300 467/447/467 111/446/111
f 83/436/83 299/445/299 467/447/467 300/449/300
f 83/436/83 300/449/300 468/450/468 290/440/290
f 11/448/11 301/451/301 468/450/468 300/449/300
f 30/242/30 290/440/290 468/450/468 301/451/301
f 11/448/11 110/452/110 469/453/469 301/451/301
f 1/1/1 125/246/125 469/453/469 110/452/110
f 30/242/30 301/451/301 469/453/469 125/246/125
f 14/454/14 302/455/302 470/456/470 93/457/93
f 29/5/29 97/2/97 470/456/470 302/455/302
f 1/1/1 93/457/93 470/456/470 97/2/97
f 13/458/13 304/459/304 471/460/471 112/461/112
f 84/462/84 307/463/307 471/460/471 304/459/304
f 14/454/14 112/461/112 471/460/471 307/463/307
f 14/454/14 307/463/307 472/464/472 302/455/302
f 84/462/84 308/465/308 472/464/472 307/463/307
f 29/5/29 302/455/302 472/464/472 308/465/308
f 84/462/84 303/466/303 473/467/473 308/465/308
f 28/289/28 124/287/124 473/467/473 303/466/303
f 29/5/29 308/465/308 473/467/473 124/287/124
f 13/458/13 309/468/309 474/469/474 304/459/304
f 85/470/85 310/471/310 474/469/474 309/468/309
f 84/462/84 304/459/304 474/469/474 310/471/310
f 85/470/85 306/472/306 475/473/475 310/471/310
f 86/474/86 311/475/311 475/473/475 306/472/306
f 84/462/84 310/471/310 475/473/475 311/475/311
f 84/462/84 311/475/311 476/476/476 303/466/303
f 86/474/86 312/477/312 476/476/476 311/475/311
f 28/289/28 303/466/303 476/476/476 312/477/312
f 86/474/86 305/478/305 477/479/477 312/477/312
f 27/295/27 123/293/123 477/479/477 305/478/305
f 28/289/28 312/477/312 477/479/477 123/293/123
f 85/470/85 313/480/313 478/481/478 306/472/306
f 8/482/8 314/483/314 478/481/478 313/480/313
f 86/474/86 306/472/306 478/481/478 314/483/314
f 8/482/8 108/484/108 479/485/479 314/483/314
f 7/486/7 315/487/315 479/485/479 108/484/108
f 86/474/86 314/483/314 479/485/479 315/487/315
f 86/474/86 315/487/315 480/488/480 305/478/305
f 7/486/7 316/489/316 480/488/480 315/487/315
f 27/295/27 305/478/305 480/488/480 316/489/316
f 7/486/7 107/490/107 481/491/481 316/489/316
f 5/29/5 122/299/122 481/491/481 107/490/107
f 27/295/27 316/489/316 481/491/481 122/299/122
f 23/334/23 317/492/317 482/493/482 119/338/119
f 26/340/26 96/343/96 482/493/482 317/492/317
f 4/22/4 119/338/119 482/493/482 96/343/96
f 24/330/24 319/494/319 483/495/483 120/332/120
f 87/496/87 320/497/320 483/495/483 319/494/319
f 23/334/23 120/332/120 483/495/483 320/497/320
f 23/334/23 320/497/320 484/498/484 317/492/317
f 87/496/87 321/499/321 484/498/484 320/497/320
f 26/340/26 317/492/317 484/498/484 321/499/321
f 87/496/87 318/500/318 485/501/485 321/499/321
f 25/344/25 121/347/121 485/501/485 318/500/318
f 26/340/26 321/499/321 485/501/485 121/347/121
f 19/372/19 322/502/322 486/503/486 116/376/116
f 22/378/22 95/381/95 486/503/486 322/502/322
f 3/15/3 116/376/116 486/503/486 95/381/95
f 20/368/20 324/504/324 487/505/487 117/370/117
f 88/506/88 325/507/325 487/505/487 324/504/324
f 19/372/19 117/370/117 487/505/487 325/507/325
f 19/372/19 325/507/325 488/508/488 322/502/322
f 88/506/88 326/509/326 488/508/488 325/507/325
f 22/378/22 322/502/322 488/508/488 326/509/326
f 88/506/88 323/510/323 489/511/489 326/509/326
f 21/382/21 118/385/118 489/511/489 323/510/323
f 22/378/22 326/509/326 489/511/489 118/385/118
f 15/410/15 327/512/327 490/513/490 113/414/113
f 18/514/18 94/515/94 490/513/490 327/512/327
f 2/194/2 113/414/113 490/513/490 94/515/94
f 16/406/16 329/516/329 491/517/491 114/408/114
f 89/518/89 330/519/330 491/517/491 329/516/329
f 15/410/15 114/408/114 491/517/491 330/519/330
f 15/410/15 330/519/330 492/520/492 327/512/327
f 89/518/89 331/521/331 492/520/492 330/519/330
f 18/514/18 327/512/327 492/520/492 331/521/331
f 89/518/89 328/522/328 493/523/493 331/521/331
f 17/524/17 115/525/115 493/523/493 328/522/328
f 18/514/18 331/521/331 493/523/493 115/525/115
f 11/448/11 332/526/332 494/527/494 110/452/110
f 14/454/14 93/457/93 494/527/494 332/526/332
f 1/1/1 110/452/110 494/527/494 93/457/93
f 12/444/12 334/528/334 495/529/495 111/446/111
f 90/530/90 335/531/335 495/529/495 334/528/334
f 11/448/11 111/446/111 495/529/495 335/531/335
f 11/448/11 335/531/335 496/532/496 332/526/332
f 90/530/90 336/533/336 496/532/496 335/531/335
f 14/454/14 332/526/332 496/532/496 336/533/336
f 90/530/90 333/534/333 497/535/497 336/533/336
f 13/458/13 112/461/112 497/535/497 333/534/333
f 14/454/14 336/533/336 497/535/497 112/461/112
f 7/486/7 337/536/337 498/537/498 107/490/107
f 10/302/10 92/305/92 498/537/498 337/536/337
f 5/29/5 107/490/107 498/537/498 92/305/92
f 8/482/8 339/538/339 499/539/499 108/484/108
f 91/540/91 340/541/340 499/539/499 339/538/339
f 7/486/7 108/484/108 499/539/499 340/541/340
f 7/486/7 340/541/340 500/542/500 337/536/337
f 91/540/91 341/543/341 500/542/500 340/541/340
f 10/302/10 337/536/337 500/542/500 341/543/341
f 91/540/91 338/544/338 501/545/501 341/543/341
f 9/306/9 109/309/109 501/545/501 338/544/338
f 10/302/10 341/543/341 501/545/501 109/309/109
