# Blender 4.1.0
# www.blender.org
mtllib radiation.mtl
o Circle
v 0.000000 0.000000 -0.993595
v -0.193841 0.000000 -0.974504
v -0.380232 0.000000 -0.917962
v -0.552012 0.000000 -0.826144
v -0.702578 0.000000 -0.702578
v -0.826144 0.000000 -0.552012
v -0.917962 0.000000 -0.380232
v -0.974504 0.000000 -0.193841
v -0.993595 0.000000 0.000000
v -0.974504 0.000000 0.193841
v -0.917962 0.000000 0.380232
v -0.826144 0.000000 0.552012
v -0.702578 0.000000 0.702578
v -0.552012 0.000000 0.826144
v -0.380232 0.000000 0.917962
v -0.193841 0.000000 0.974504
v 0.000000 0.000000 0.993595
v 0.193841 0.000000 0.974504
v 0.380232 0.000000 0.917962
v 0.552012 0.000000 0.826144
v 0.702578 0.000000 0.702578
v 0.826144 0.000000 0.552012
v 0.917962 0.000000 0.380232
v 0.974504 0.000000 0.193841
v 0.993595 0.000000 0.000000
v 0.974504 0.000000 -0.193841
v 0.917962 0.000000 -0.380232
v 0.826144 0.000000 -0.552012
v 0.702578 0.000000 -0.702578
v 0.552012 0.000000 -0.826144
v 0.380232 0.000000 -0.917962
v 0.193841 0.000000 -0.974504
v 0.000000 0.199461 -1.134844
v -0.221397 0.174295 -1.113038
v -0.434286 0.262910 -1.048459
v -0.630485 0.282700 -0.943588
v -0.802456 0.240032 -0.802456
v -0.943588 0.250482 -0.630485
v -1.048459 0.182996 -0.434286
v -1.113038 0.146324 -0.221397
v -1.134844 0.171441 0.000000
v -1.113038 0.194769 0.221397
v -1.048459 0.174310 0.434286
v -0.943588 0.194840 0.630485
v -0.802456 0.273123 0.802456
v -0.630485 0.298907 0.943588
v -0.434286 0.276720 1.048459
v -0.221397 0.244170 1.113038
v 0.000000 0.202184 1.134844
v 0.221397 0.197075 1.113038
v 0.434286 0.269001 1.048459
v 0.630485 0.292950 0.943588
v 0.802456 0.247125 0.802456
v 0.943588 0.219681 0.630485
v 1.048459 0.204856 0.434286
v 1.113038 0.184003 0.221397
v 1.134844 0.219373 0.000000
v 1.113038 0.234523 -0.221397
v 1.048459 0.254720 -0.434286
v 0.943588 0.274307 -0.630485
v 0.802456 0.232462 -0.802456
v 0.630485 0.179472 -0.943588
v 0.434286 0.237475 -1.048459
v 0.221397 0.269946 -1.113038
v 0.000000 0.550265 -1.244603
v -0.242810 0.536241 -1.220688
v -0.476289 0.828132 -1.149863
v -0.691464 0.856932 -1.034850
v -0.880067 0.690471 -0.880067
v -1.034850 0.832906 -0.691464
v -1.149863 0.624261 -0.476289
v -1.220688 0.468582 -0.242810
v -1.244603 0.470992 0.000000
v -1.220688 0.549198 0.242810
v -1.149863 0.564794 0.476289
v -1.034850 0.660726 0.691464
v -0.880067 0.975940 0.880067
v -0.691464 1.003664 1.034850
v -0.476289 0.925757 1.149863
v -0.242810 0.824974 1.220688
v 0.000000 0.650389 1.244603
v 0.242810 0.575679 1.220688
v 0.476289 0.767784 1.149863
v 0.691464 0.933467 1.034850
v 0.880067 0.759262 0.880067
v 1.034850 0.635765 0.691464
v 1.149863 0.585790 0.476289
v 1.220688 0.565461 0.242810
v 1.244603 0.725507 0.000000
v 1.220688 0.647995 -0.242810
v 1.149863 0.791810 -0.476289
v 1.034850 0.895536 -0.691464
v 0.880067 0.645965 -0.880067
v 0.691464 0.543863 -1.034850
v 0.476289 0.781810 -1.149863
v 0.242810 0.838606 -1.220688
v 0.000000 0.289537 -1.370746
v -0.267419 0.307937 -1.344407
v -0.524562 0.445653 -1.266404
v -0.761545 0.495389 -1.139733
v -0.969263 0.425422 -0.969263
v -1.139733 0.436166 -0.761545
v -1.266404 0.411551 -0.524562
v -1.344407 0.326669 -0.267419
v -1.370746 0.332328 0.000000
v -1.344407 0.410141 0.267419
v -1.266404 0.465360 0.524562
v -1.139733 0.436282 0.761545
v -0.969263 0.462374 0.969263
v -0.761545 0.431935 1.139733
v -0.524562 0.502784 1.266404
v -0.267419 0.425978 1.344407
v 0.000000 0.352549 1.370746
v 0.267419 0.298866 1.344407
v 0.524562 0.406454 1.266404
v 0.761545 0.450761 1.139733
v 0.969263 0.383905 0.969263
v 1.139733 0.345138 0.761545
v 1.266404 0.341540 0.524562
v 1.344407 0.385818 0.267419
v 1.370746 0.425116 0.000000
v 1.344407 0.359859 -0.267419
v 1.266404 0.381193 -0.524562
v 1.139733 0.418875 -0.761545
v 0.969263 0.399553 -0.969263
v 0.761545 0.349486 -1.139733
v 0.524562 0.430185 -1.266404
v 0.267419 0.430660 -1.344407
v 0.000000 0.091084 -1.578904
v -0.308029 0.116034 -1.548566
v -0.604220 0.147892 -1.458717
v -0.877192 0.144905 -1.312810
v -1.116453 0.115410 -1.116454
v -1.312811 0.119938 -0.877192
v -1.458717 0.139491 -0.604220
v -1.548566 0.128883 -0.308029
v -1.578904 0.109462 0.000000
v -1.548566 0.119329 0.308029
v -1.458717 0.149854 0.604220
v -1.312810 0.124238 0.877192
v -1.116454 0.101809 1.116454
v -0.877192 0.114020 1.312811
v -0.604220 0.153487 1.458717
v -0.308029 0.107659 1.548566
v 0.000000 0.094499 1.578904
v 0.308029 0.108266 1.548566
v 0.604220 0.137103 1.458717
v 0.877192 0.118413 1.312810
v 1.116454 0.103713 1.116454
v 1.312811 0.096291 0.877192
v 1.458717 0.126575 0.604220
v 1.548566 0.154008 0.308029
v 1.578904 0.145045 0.000000
v 1.548566 0.120932 -0.308029
v 1.458717 0.112052 -0.604220
v 1.312811 0.106627 -0.877192
v 1.116454 0.131029 -1.116454
v 0.877192 0.107870 -1.312811
v 0.604220 0.120299 -1.458717
v 0.308029 0.108270 -1.548566
v 0.000000 0.001887 -1.919408
v -0.374458 0.002333 -1.882528
v -0.734526 0.001656 -1.773302
v -1.066366 0.001549 -1.595930
v -1.357227 0.001679 -1.357227
v -1.595930 0.001491 -1.066366
v -1.773302 0.001109 -0.734526
v -1.882527 0.001441 -0.374458
v -1.919408 0.001430 0.000000
v -1.882528 0.001503 0.374458
v -1.773302 0.001715 0.734526
v -1.595930 0.001659 1.066366
v -1.357226 0.001442 1.357227
v -1.066366 0.001702 1.595930
v -0.734526 0.001366 1.773302
v -0.374458 0.001532 1.882527
v 0.000000 0.001939 1.919408
v 0.374458 0.002001 1.882528
v 0.734526 0.001946 1.773302
v 1.066366 0.001647 1.595930
v 1.357227 0.002139 1.357227
v 1.595930 0.002001 1.066366
v 1.773302 0.001430 0.734526
v 1.882527 0.001421 0.374458
v 1.919408 0.001402 0.000000
v 1.882528 0.001944 -0.374458
v 1.773302 0.001874 -0.734526
v 1.595930 0.001753 -1.066366
v 1.357227 0.002076 -1.357227
v 1.066366 0.001684 -1.595930
v 0.734526 0.001473 -1.773302
v 0.374458 0.001874 -1.882527
v -0.097389 0.000000 -0.988807
v -0.288424 0.000000 -0.950808
v -0.468376 0.000000 -0.876269
v -0.630328 0.000000 -0.768056
v -0.768056 0.000000 -0.630328
v -0.876269 0.000000 -0.468376
v -0.950808 0.000000 -0.288424
v -0.988807 0.000000 -0.097389
v -0.988807 0.000000 0.097389
v -0.950808 0.000000 0.288424
v -0.876269 0.000000 0.468376
v -0.768056 0.000000 0.630328
v -0.630328 0.000000 0.768056
v -0.468376 0.000000 0.876269
v -0.288424 0.000000 0.950808
v -0.097389 0.000000 0.988807
v 0.097389 0.000000 0.988807
v 0.288424 0.000000 0.950808
v 0.468376 0.000000 0.876269
v 0.630328 0.000000 0.768056
v 0.768056 0.000000 0.630328
v 0.876269 0.000000 0.468376
v 0.950808 0.000000 0.288424
v 0.988807 0.000000 0.097389
v 0.988807 0.000000 -0.097389
v 0.950808 0.000000 -0.288424
v 0.876269 0.000000 -0.468376
v 0.768056 0.000000 -0.630328
v 0.630328 0.000000 -0.768056
v 0.468376 0.000000 -0.876269
v 0.288424 0.000000 -0.950808
v 0.097389 0.000000 -0.988807
v -0.111234 0.171404 -1.129375
v -0.329426 0.214751 -1.085974
v -0.534959 0.286827 -1.000839
v -0.719934 0.258362 -0.877243
v -0.877243 0.246755 -0.719934
v -1.000839 0.223059 -0.534959
v -1.085973 0.155554 -0.329426
v -1.129375 0.154263 -0.111234
v -1.129375 0.188189 0.111234
v -1.085974 0.185912 0.329426
v -1.000839 0.175049 0.534959
v -0.877243 0.233683 0.719934
v -0.719934 0.294765 0.877243
v -0.534959 0.290791 1.000839
v -0.329426 0.261663 1.085973
v -0.111234 0.222754 1.129375
v 0.111234 0.189813 1.129375
v 0.329426 0.230011 1.085974
v 0.534959 0.292004 1.000839
v 0.719934 0.273109 0.877243
v 0.877243 0.229359 0.719934
v 1.000839 0.213744 0.534959
v 1.085973 0.190097 0.329426
v 1.129375 0.198718 0.111234
v 1.129375 0.229659 -0.111234
v 1.085974 0.242436 -0.329426
v 1.000839 0.268877 -0.534959
v 0.877243 0.261380 -0.719934
v 0.719934 0.196837 -0.877243
v 0.534959 0.199556 -1.000839
v 0.329426 0.266465 -1.085973
v 0.111234 0.240787 -1.129375
v 0.000000 0.067814 -1.067473
v -0.208254 0.052286 -1.046962
v 0.887572 0.071939 -0.593056
v 0.754817 0.080688 -0.754817
v -0.408504 0.071924 0.986217
v -0.208254 0.061692 1.046962
v -0.408504 0.075237 -0.986217
v 0.593056 0.056699 -0.887572
v 0.000000 0.056305 1.067473
v -0.593056 0.087165 -0.887571
v 0.408504 0.063834 -0.986217
v 0.208254 0.062191 1.046962
v -0.754817 0.080293 -0.754817
v 0.208254 0.078448 -1.046962
v 0.408504 0.087844 0.986217
v -0.887572 0.065312 -0.593056
v 0.593056 0.080630 0.887571
v -0.986217 0.048613 -0.408504
v 0.754817 0.072686 0.754817
v -1.046962 0.043519 -0.208254
v 0.887572 0.071063 0.593056
v -1.067473 0.061864 0.000000
v 0.986217 0.067861 0.408504
v -1.046962 0.069460 0.208254
v 1.046962 0.057577 0.208254
v -0.986217 0.054100 0.408504
v 1.067473 0.059265 0.000000
v -0.887571 0.052575 0.593056
v 1.046962 0.080260 -0.208254
v -0.754817 0.060018 0.754817
v 0.986217 0.072751 -0.408504
v -0.593056 0.072866 0.887572
v -0.121992 0.487537 -1.238605
v -0.361288 0.679745 -1.191006
v -0.586700 0.891951 -1.097638
v -0.789565 0.750347 -0.962088
v -0.962088 0.763073 -0.789565
v -1.097638 0.762219 -0.586700
v -1.191006 0.522287 -0.361288
v -1.238605 0.453545 -0.121992
v -1.238605 0.511495 0.121992
v -1.191006 0.562694 0.361288
v -1.097638 0.581922 0.586700
v -0.962088 0.823631 0.789565
v -0.789565 1.025026 0.962088
v -0.586700 0.965939 1.097638
v -0.361288 0.883417 1.191006
v -0.121992 0.740500 1.238605
v 0.121992 0.583931 1.238605
v 0.361288 0.647815 1.191006
v 0.586700 0.885245 1.097638
v 0.789565 0.869170 0.962088
v 0.962088 0.680117 0.789565
v 1.097638 0.610971 0.586700
v 1.191006 0.553558 0.361288
v 1.238605 0.654801 0.121992
v 1.238605 0.692992 -0.121992
v 1.191006 0.691707 -0.361288
v 1.097638 0.882247 -0.586700
v 0.962088 0.792169 -0.789565
v 0.789565 0.547850 -0.962088
v 0.586700 0.646854 -1.097638
v 0.361288 0.861614 -1.191006
v 0.121992 0.702153 -1.238605
v -0.842709 0.505518 -0.842709
v -0.990921 0.597003 -0.662112
v 0.232503 0.611834 -1.168871
v 0.000000 0.413859 -1.191771
v 0.456071 0.572194 1.101053
v 0.662112 0.680408 0.990921
v -1.101053 0.435435 -0.456071
v 0.842709 0.556443 0.842709
v -1.168871 0.330407 -0.232503
v 0.990921 0.470403 0.662112
v -1.191771 0.344743 0.000000
v 1.101053 0.432995 0.456071
v -1.168871 0.395884 0.232503
v 1.168871 0.403961 0.232503
v -1.101053 0.387653 0.456071
v 1.191771 0.516168 0.000000
v -0.990921 0.460676 0.662112
v 1.168871 0.485157 -0.232503
v -0.842709 0.693028 0.842709
v 1.101053 0.581202 -0.456071
v -0.662112 0.728853 0.990921
v 0.990921 0.650470 -0.662112
v -0.456071 0.660930 1.101053
v -0.232503 0.389484 -1.168871
v 0.842709 0.477950 -0.842709
v -0.232503 0.589513 1.168871
v -0.456071 0.600809 -1.101053
v 0.662112 0.391434 -0.990921
v 0.000000 0.468391 1.191771
v -0.662112 0.623049 -0.990921
v 0.456071 0.559280 -1.101053
v 0.232503 0.427345 1.168871
v -0.134356 0.273237 -1.364140
v -0.397905 0.375305 -1.311717
v -0.646162 0.490231 -1.208885
v -0.869588 0.460938 -1.059597
v -1.059596 0.423576 -0.869588
v -1.208885 0.435190 -0.646162
v -1.311717 0.366861 -0.397905
v -1.364140 0.315810 -0.134356
v -1.364140 0.367228 0.134356
v -1.311717 0.448881 0.397905
v -1.208885 0.450389 0.646162
v -1.059597 0.450849 0.869588
v -0.869588 0.442012 1.059597
v -0.646162 0.469623 1.208885
v -0.397905 0.477854 1.311717
v -0.134356 0.387209 1.364140
v 0.134356 0.311782 1.364140
v 0.397905 0.342537 1.311717
v 0.646162 0.446280 1.208885
v 0.869588 0.422183 1.059597
v 1.059597 0.358605 0.869588
v 1.208885 0.338435 0.646162
v 1.311717 0.358068 0.397905
v 1.364140 0.416727 0.134356
v 1.364140 0.394134 -0.134356
v 1.311717 0.359418 -0.397905
v 1.208885 0.404217 -0.646162
v 1.059597 0.418836 -0.869588
v 0.869588 0.364753 -1.059597
v 0.646162 0.381768 -1.208885
v 0.397905 0.453504 -1.311717
v 0.134356 0.359022 -1.364140
v -0.498214 0.804326 1.202796
v -0.253987 0.707291 1.276881
v -0.253987 0.471061 -1.276881
v -0.498214 0.713980 -1.202796
v 0.920580 0.582931 -0.920580
v 0.723295 0.500839 -1.082487
v 0.000000 0.565348 1.301897
v -0.723295 0.759007 -1.082487
v 0.498214 0.683263 -1.202796
v 0.253987 0.487457 1.276881
v -0.920580 0.626009 -0.920580
v 0.253987 0.715138 -1.276881
v 0.498214 0.654945 1.202796
v -1.082487 0.715938 -0.723295
v 0.000000 0.468407 -1.301897
v 0.723295 0.780034 1.082487
v -1.202796 0.581957 -0.498214
v 0.920580 0.642892 0.920580
v -1.276881 0.443543 -0.253987
v 1.082487 0.549873 0.723295
v -1.301897 0.447699 0.000000
v 1.202796 0.515957 0.498214
v -1.276881 0.537175 0.253987
v 1.276881 0.529516 0.253987
v -1.202796 0.578383 0.498214
v 1.301897 0.645733 0.000000
v -1.082487 0.619008 0.723295
v 1.276881 0.561331 -0.253987
v -0.920580 0.816724 0.920580
v 1.202796 0.658862 -0.498214
v -0.723295 0.810605 1.082487
v 1.082488 0.741841 -0.723295
v -0.154759 0.099233 -1.571295
v -0.458330 0.134320 -1.510911
v -0.744287 0.151772 -1.392463
v -1.001642 0.129314 -1.220504
v -1.220504 0.112856 -1.001642
v -1.392463 0.131436 -0.744287
v -1.510911 0.137795 -0.458330
v -1.571295 0.117637 -0.154759
v -1.571295 0.109250 0.154759
v -1.510911 0.137978 0.458330
v -1.392463 0.141953 0.744287
v -1.220504 0.109867 1.001642
v -1.001642 0.101449 1.220504
v -0.744287 0.139563 1.392463
v -0.458330 0.135566 1.510911
v -0.154759 0.095033 1.571295
v 0.154759 0.098227 1.571295
v 0.458330 0.125603 1.510911
v 0.744287 0.131410 1.392463
v 1.001642 0.109863 1.220504
v 1.220504 0.096927 1.001642
v 1.392463 0.108065 0.744287
v 1.510911 0.143766 0.458330
v 1.571295 0.153713 0.154759
v 1.571295 0.132096 -0.154759
v 1.510911 0.115844 -0.458330
v 1.392463 0.105818 -0.744287
v 1.220504 0.121081 -1.001642
v 1.001642 0.120606 -1.220504
v 0.744287 0.111693 -1.392463
v 0.458330 0.118520 -1.510911
v 0.154759 0.096233 -1.571295
v 0.284635 0.175312 1.430955
v 0.558331 0.234724 1.347930
v -1.031661 0.243069 -1.031661
v -1.213105 0.234133 -0.810571
v 0.284635 0.224032 -1.430955
v 0.000000 0.163263 -1.458989
v 0.810571 0.230533 1.213105
v -1.347930 0.255008 -0.558331
v 1.031661 0.202450 1.031661
v -1.430955 0.216171 -0.284635
v 1.213105 0.189698 0.810571
v -1.458989 0.209121 0.000000
v 1.347930 0.210677 0.558331
v -1.430955 0.252777 0.284635
v 1.430955 0.255153 0.284635
v -1.347930 0.301028 0.558331
v 1.458989 0.254494 0.000000
v -1.213105 0.257073 0.810571
v 1.430955 0.211529 -0.284635
v -1.031661 0.222093 1.031661
v 1.347930 0.201581 -0.558331
v -0.810571 0.207691 1.213105
v 1.213105 0.208715 -0.810571
v -0.558331 0.282596 1.347930
v -0.284635 0.189574 -1.430955
v 1.031661 0.241626 -1.031661
v -0.284635 0.221786 1.430955
v -0.558331 0.256753 -1.347930
v 0.810571 0.209503 -1.213105
v 0.000000 0.190750 1.458989
v -0.810571 0.282299 -1.213105
v 0.558331 0.236874 -1.347930
v -0.188134 0.002164 -1.910158
v -0.557173 0.002057 -1.836752
v -0.904799 0.001507 -1.692760
v -1.217655 0.001631 -1.483717
v -1.483717 0.001643 -1.217655
v -1.692760 0.001245 -0.904799
v -1.836752 0.001244 -0.557173
v -1.910159 0.001476 -0.188134
v -1.910158 0.001433 0.188134
v -1.836752 0.001617 0.557173
v -1.692760 0.001737 0.904799
v -1.483717 0.001504 1.217655
v -1.217655 0.001588 1.483717
v -0.904799 0.001559 1.692760
v -0.557173 0.001367 1.836752
v -0.188134 0.001759 1.910159
v 0.188134 0.001997 1.910158
v 0.557173 0.002014 1.836752
v 0.904799 0.001743 1.692760
v 1.217655 0.001862 1.483717
v 1.483717 0.002185 1.217655
v 1.692761 0.001683 0.904799
v 1.836752 0.001392 0.557173
v 1.910159 0.001369 0.188134
v 1.910158 0.001669 -0.188134
v 1.836752 0.001988 -0.557173
v 1.692761 0.001751 -0.904799
v 1.483717 0.001938 -1.217655
v 1.217655 0.001947 -1.483717
v 0.904799 0.001486 -1.692760
v 0.557173 0.001680 -1.836752
v 0.188134 0.001861 -1.910159
v 1.228875 0.044385 1.228875
v 1.445004 0.040165 0.965521
v -1.704498 0.060237 -0.339046
v -1.737891 0.045016 0.000000
v 1.605603 0.060569 0.665062
v -1.704498 0.042779 0.339046
v 1.704498 0.072732 0.339046
v -1.605603 0.057057 0.665062
v 1.737891 0.066365 0.000000
v -1.445004 0.046994 0.965521
v 1.704498 0.056068 -0.339046
v -1.228875 0.039100 1.228875
v 1.605603 0.052106 -0.665062
v -0.965521 0.053924 1.445004
v 1.445004 0.046280 -0.965521
v -0.665062 0.067960 1.605603
v 0.000000 0.041845 -1.737891
v -0.339046 0.056878 -1.704498
v 1.228875 0.056994 -1.228875
v -0.339046 0.043082 1.704498
v -0.665062 0.069174 -1.605603
v 0.965521 0.044240 -1.445004
v 0.000000 0.038458 1.737891
v -0.965521 0.059952 -1.445004
v 0.665062 0.049793 -1.605603
v 0.339046 0.054009 1.704498
v -1.228875 0.043125 -1.228875
v 0.339046 0.043217 -1.704498
v 0.665062 0.065102 1.605603
v -1.445004 0.050632 -0.965521
v 0.965521 0.051100 1.445004
v -1.605603 0.060428 -0.665062
v -0.104630 0.056733 -1.062329
v 0.825165 0.079065 -0.677195
v -0.309870 0.066920 1.021504
v -0.309870 0.061263 -1.021504
v 0.677195 0.069215 -0.825165
v -0.104630 0.058212 1.062329
v -0.503201 0.084217 -0.941424
v 0.503201 0.056035 -0.941424
v 0.104630 0.056236 1.062329
v -0.677195 0.085345 -0.825165
v 0.309870 0.073072 -1.021504
v 0.309870 0.076209 1.021504
v -0.825165 0.073410 -0.677195
v 0.104630 0.076303 -1.062329
v 0.503201 0.087395 0.941424
v -0.941424 0.056600 -0.503201
v 0.677195 0.075433 0.825165
v -1.021504 0.043199 -0.309870
v 0.825165 0.071519 0.677195
v -1.062329 0.051379 -0.104630
v 0.941424 0.070330 0.503201
v -1.062329 0.069020 0.104630
v 1.021504 0.062850 0.309870
v -1.021504 0.062302 0.309870
v 1.062329 0.055194 0.104630
v -0.941424 0.051312 0.503201
v 1.062329 0.070808 -0.104630
v -0.825165 0.055323 0.677195
v 1.021504 0.078997 -0.309870
v -0.677195 0.066971 0.825165
v 0.941424 0.069510 -0.503201
v -0.503201 0.074398 0.941424
v -0.921248 0.553729 -0.756048
v 0.116813 0.521023 -1.186027
v 0.561794 0.651481 1.051044
v -1.051044 0.538890 -0.561795
v 0.756048 0.633399 0.921248
v -1.140449 0.363462 -0.345951
v 0.921248 0.501195 0.756048
v -1.186027 0.326778 -0.116813
v 1.051044 0.453178 0.561795
v -1.186027 0.374398 0.116813
v 1.140449 0.403412 0.345951
v -1.140449 0.394690 0.345951
v 1.186027 0.462741 0.116813
v -1.051044 0.400189 0.561794
v 1.186027 0.505760 -0.116813
v -0.921248 0.579614 0.756048
v 1.140449 0.516173 -0.345951
v -0.756048 0.737819 0.921248
v 1.051044 0.641163 -0.561795
v -0.561795 0.697222 1.051044
v -0.116813 0.362105 -1.186027
v 0.921248 0.580622 -0.756048
v -0.345951 0.629239 1.140449
v -0.345951 0.491746 -1.140449
v 0.756048 0.402136 -0.921248
v -0.116813 0.530500 1.186027
v -0.561794 0.647617 -1.051044
v 0.561795 0.461531 -1.051044
v 0.116813 0.426268 1.186027
v -0.756048 0.548253 -0.921248
v 0.345951 0.621265 -1.140449
v 0.345951 0.484881 1.140449
v -0.377919 0.767958 1.245832
v -0.377919 0.590345 -1.245832
v 0.825911 0.508808 -1.006376
v -0.127608 0.637543 1.295623
v -0.613707 0.775581 -1.148166
v 0.613707 0.578991 -1.148166
v 0.127608 0.502179 1.295622
v -0.825911 0.679301 -1.006376
v 0.377919 0.741783 -1.245832
v 0.377919 0.550836 1.245832
v -1.006376 0.667875 -0.825911
v 0.127608 0.595435 -1.295623
v 0.613707 0.747056 1.148166
v -1.148166 0.674915 -0.613707
v 0.825911 0.727797 1.006376
v -1.245832 0.497605 -0.377919
v 1.006376 0.583270 0.825911
v -1.295623 0.428431 -0.127608
v 1.148166 0.530319 0.613707
v -1.295622 0.490883 0.127608
v 1.245832 0.506267 0.377919
v -1.245832 0.567290 0.377919
v 1.295623 0.599799 0.127608
v -1.148166 0.580523 0.613707
v 1.295622 0.608039 -0.127608
v -1.006376 0.722357 0.825911
v 1.245832 0.586904 -0.377919
v -0.825911 0.831404 1.006376
v 1.148166 0.725849 -0.613707
v -0.613707 0.808516 1.148166
v -0.127608 0.423457 -1.295622
v 1.006376 0.679757 -0.825911
v 0.423520 0.203490 1.396160
v -1.127809 0.231339 -0.925569
v 0.143005 0.190243 -1.451958
v 0.687760 0.241355 1.286708
v -1.286708 0.248314 -0.687760
v 0.925569 0.215922 1.127809
v -1.396160 0.239088 -0.423520
v 1.127809 0.192834 0.925569
v -1.451958 0.205380 -0.143005
v 1.286708 0.195316 0.687760
v -1.451958 0.225579 0.143005
v 1.396160 0.234177 0.423520
v -1.396160 0.284912 0.423520
v 1.451958 0.262761 0.143005
v -1.286708 0.285239 0.687760
v 1.451958 0.232791 -0.143005
v -1.127809 0.238031 0.925569
v 1.396160 0.202984 -0.423520
v -0.925569 0.203827 1.127809
v 1.286708 0.200865 -0.687760
v -0.687760 0.249749 1.286708
v -0.143005 0.165122 -1.451958
v 1.127809 0.229800 -0.925569
v -0.423520 0.262236 1.396160
v -0.423520 0.223777 -1.396160
v 0.925569 0.226048 -1.127809
v -0.143005 0.201212 1.451958
v -0.687760 0.278657 -1.286708
v 0.687760 0.218701 -1.286708
v 0.143005 0.176197 1.451958
v -0.925569 0.265450 -1.127809
v 0.423520 0.240690 -1.396160
v 1.343403 0.040333 1.102502
v -1.729516 0.053086 -0.170342
v 1.532677 0.048687 0.819233
v -1.729516 0.040792 0.170342
v 1.663052 0.069169 0.504481
v -1.663052 0.050819 0.504481
v 1.729516 0.071194 0.170342
v -1.532677 0.054462 0.819233
v 1.729516 0.060539 -0.170342
v -1.343403 0.040717 1.102502
v 1.663052 0.054250 -0.504481
v -1.102502 0.044065 1.343403
v 1.532677 0.047544 -0.819233
v -0.819233 0.064835 1.532677
v -0.170342 0.048119 -1.729516
v 1.343403 0.052570 -1.102502
v -0.504481 0.057280 1.663052
v -0.504481 0.064943 -1.663052
v 1.102502 0.051135 -1.343403
v -0.170342 0.036836 1.729516
v -0.819233 0.067230 -1.532677
v 0.819233 0.045949 -1.532677
v 0.170342 0.045049 1.729516
v -1.102502 0.049872 -1.343403
v 0.504481 0.047939 -1.663052
v 0.504481 0.062333 1.663052
v -1.343403 0.044604 -1.102502
v 0.170342 0.040457 -1.729516
v 0.819233 0.059256 1.532677
v -1.532677 0.056311 -0.819233
v 1.102502 0.047023 1.343403
v -1.663052 0.062368 -0.504481
vn -0.0372 0.7401 0.6715
vn 0.1261 0.7994 0.5874
vn 0.3088 0.7068 0.6365
vn 0.4230 0.6516 0.6297
vn 0.5041 0.6792 0.5334
vn 0.5312 0.7501 0.3938
vn 0.5007 0.8322 0.2384
vn 0.5162 0.8523 0.0845
vn 0.6359 0.7710 -0.0351
vn 0.6646 0.7376 -0.1191
vn 0.5624 0.8001 -0.2087
vn 0.4796 0.8129 -0.3305
vn 0.4316 0.7734 -0.4642
vn 0.3758 0.7171 -0.5870
vn 0.2785 0.7195 -0.6362
vn 0.1422 0.7655 -0.6276
vn 0.0040 0.7930 -0.6091
vn -0.1650 0.7554 -0.6341
vn -0.3062 0.6564 -0.6895
vn -0.3933 0.6740 -0.6254
vn -0.4922 0.7110 -0.5022
vn -0.5749 0.7210 -0.3868
vn -0.6163 0.7395 -0.2707
vn -0.6042 0.7852 -0.1359
vn -0.6362 0.7709 0.0305
vn -0.7076 0.6892 0.1557
vn -0.6578 0.7091 0.2540
vn -0.5749 0.7111 0.4048
vn -0.5242 0.6899 0.4992
vn -0.3698 0.7786 0.5069
vn -0.2202 0.7551 0.6175
vn -0.1348 0.6940 0.7072
vn -0.1031 0.3491 0.9314
vn 0.2461 0.3692 0.8962
vn 0.4462 0.2521 0.8587
vn 0.5079 0.2458 0.8256
vn 0.6675 0.2934 0.6843
vn 0.7907 0.2547 0.5567
vn 0.8290 0.3335 0.4488
vn 0.8870 0.4239 0.1833
vn 0.9081 0.4148 -0.0580
vn 0.9095 0.3736 -0.1824
vn 0.8617 0.3751 -0.3417
vn 0.7416 0.3169 -0.5912
vn 0.6447 0.2190 -0.7324
vn 0.5483 0.2074 -0.8101
vn 0.3988 0.2289 -0.8880
vn 0.2323 0.2558 -0.9384
vn 0.0473 0.3148 -0.9480
vn -0.2362 0.3415 -0.9097
vn -0.4391 0.2635 -0.8589
vn -0.5268 0.2255 -0.8195
vn -0.6418 0.2708 -0.7175
vn -0.7756 0.3168 -0.5460
vn -0.8537 0.3423 -0.3925
vn -0.9190 0.3574 -0.1662
vn -0.9549 0.2944 0.0386
vn -0.9316 0.3036 0.1999
vn -0.8773 0.2616 0.4024
vn -0.8149 0.2359 0.5294
vn -0.7345 0.3099 0.6037
vn -0.5106 0.3683 0.7769
vn -0.2912 0.2697 0.9178
vn -0.2242 0.2485 0.9423
vn -0.6424 0.7568 0.1211
vn 0.6223 0.7802 0.0643
vn 0.5469 0.8291 -0.1161
vn -0.2487 0.9174 0.3108
vn 0.1718 0.9709 0.1671
vn 0.0750 0.9958 0.0534
vn 0.0324 0.7178 0.6954
vn 0.3399 0.8866 0.3137
vn 0.3834 0.8972 -0.2193
vn 0.4365 0.8521 -0.2887
vn 0.5815 0.7591 -0.2926
vn -0.0475 0.7225 -0.6897
vn -0.2961 0.8838 -0.3622
vn 0.1583 0.9844 0.0773
vn 0.2657 0.9638 0.0233
vn 0.4651 0.8852 -0.0096
vn 0.5060 0.8518 -0.1356
vn -0.2668 0.9619 -0.0595
vn -0.6305 0.7579 0.1678
vn 0.0179 0.9977 -0.0653
vn 0.3469 0.8145 -0.4649
vn 0.0406 0.9630 -0.2665
vn -0.0792 0.9714 -0.2237
vn -0.3909 0.8776 0.2774
vn -0.1493 0.9845 0.0920
vn -0.1333 0.9911 -0.0031
vn 0.1558 0.8364 0.5255
vn -0.1505 0.9777 -0.1468
vn -0.5986 0.7326 -0.3240
vn 0.0871 0.8986 0.4301
vn 0.4746 0.8156 0.3310
vn -0.4093 0.9124 -0.0025
vn -0.1286 0.4640 -0.8765
vn -0.0013 0.4800 -0.8773
vn -0.2233 0.3389 -0.9139
vn -0.5665 0.3210 -0.7589
vn -0.6862 0.3686 -0.6271
vn -0.7752 0.3330 -0.5368
vn -0.8738 0.4282 -0.2306
vn -0.8285 0.5564 -0.0632
vn -0.8355 0.5423 -0.0891
vn -0.8741 0.4845 0.0358
vn -0.8089 0.4892 0.3260
vn -0.7740 0.3934 0.4961
vn -0.6865 0.2728 0.6740
vn -0.5571 0.2834 0.7806
vn -0.3641 0.2884 0.8856
vn -0.0781 0.3227 0.9433
vn 0.1041 0.3922 0.9140
vn 0.1197 0.4634 0.8780
vn 0.2288 0.3576 0.9054
vn 0.5525 0.2939 0.7800
vn 0.7188 0.3483 0.6017
vn 0.7742 0.4100 0.4822
vn 0.8036 0.4695 0.3658
vn 0.8367 0.4787 0.2662
vn 0.9207 0.3895 -0.0250
vn 0.8833 0.4125 -0.2227
vn 0.8881 0.3454 -0.3032
vn 0.7957 0.3083 -0.5214
vn 0.5713 0.4122 -0.7097
vn 0.5157 0.4639 -0.7203
vn 0.4497 0.3426 -0.8249
vn 0.0722 0.3181 -0.9453
vn -0.0052 0.9069 -0.4214
vn 0.0138 0.8928 -0.4503
vn -0.1590 0.8291 -0.5360
vn -0.3804 0.7892 -0.4822
vn -0.4393 0.8151 -0.3776
vn -0.4368 0.8312 -0.3438
vn -0.5180 0.8259 -0.2224
vn -0.5030 0.8632 -0.0432
vn -0.5142 0.8576 0.0092
vn -0.5958 0.8020 0.0413
vn -0.5991 0.7638 0.2400
vn -0.4546 0.7982 0.3953
vn -0.3614 0.8417 0.4011
vn -0.3586 0.8583 0.3670
vn -0.2247 0.8050 0.5491
vn -0.0040 0.8357 0.5492
vn 0.0045 0.8793 0.4763
vn 0.0136 0.9027 0.4302
vn 0.1684 0.8573 0.4864
vn 0.3422 0.8425 0.4161
vn 0.3785 0.8664 0.3258
vn 0.3823 0.8793 0.2841
vn 0.4128 0.8705 0.2682
vn 0.5295 0.8369 0.1387
vn 0.5544 0.8304 -0.0548
vn 0.4778 0.8670 -0.1415
vn 0.4344 0.8777 -0.2023
vn 0.4446 0.8610 -0.2469
vn 0.3830 0.8380 -0.3887
vn 0.2722 0.8537 -0.4440
vn 0.2333 0.8333 -0.5011
vn 0.0387 0.8449 -0.5335
vn 0.0103 0.9752 -0.2212
vn -0.0352 0.9576 -0.2858
vn -0.1285 0.9401 -0.3158
vn -0.1862 0.9529 -0.2394
vn -0.1700 0.9723 -0.1604
vn -0.2089 0.9653 -0.1570
vn -0.2812 0.9515 -0.1248
vn -0.2984 0.9532 -0.0477
vn -0.2384 0.9710 0.0159
vn -0.2279 0.9732 0.0319
vn -0.2610 0.9598 0.1029
vn -0.1927 0.9696 0.1505
vn -0.1529 0.9773 0.1466
vn -0.1764 0.9603 0.2163
vn -0.1163 0.9448 0.3063
vn -0.0203 0.9720 0.2339
vn -0.0110 0.9789 0.2041
vn 0.0318 0.9614 0.2734
vn 0.1257 0.9480 0.2923
vn 0.1616 0.9634 0.2140
vn 0.1649 0.9743 0.1533
vn 0.1753 0.9760 0.1293
vn 0.2721 0.9520 0.1404
vn 0.3524 0.9330 0.0726
vn 0.3354 0.9420 -0.0130
vn 0.2823 0.9572 -0.0639
vn 0.2401 0.9646 -0.1091
vn 0.2099 0.9687 -0.1322
vn 0.1944 0.9609 -0.1970
vn 0.1270 0.9708 -0.2033
vn 0.0981 0.9684 -0.2294
vn 0.0346 0.9743 -0.2224
vn 0.0298 0.7850 0.6188
vn 0.2296 0.7639 0.6031
vn 0.3695 0.6660 0.6480
vn 0.4688 0.6580 0.5894
vn 0.5259 0.7109 0.4669
vn 0.5204 0.7930 0.3167
vn 0.4911 0.8562 0.1607
vn 0.5753 0.8177 0.0179
vn 0.6691 0.7388 -0.0805
vn 0.6234 0.7659 -0.1575
vn 0.5110 0.8162 -0.2695
vn 0.4560 0.7980 -0.3940
vn 0.4059 0.7423 -0.5332
vn 0.3338 0.7092 -0.6209
vn 0.2133 0.7415 -0.6362
vn 0.0717 0.7835 -0.6172
vn -0.0721 0.7882 -0.6112
vn -0.2510 0.6993 -0.6693
vn -0.3466 0.6522 -0.6741
vn -0.4440 0.6970 -0.5631
vn -0.5364 0.7177 -0.4441
vn -0.6033 0.7263 -0.3293
vn -0.6135 0.7620 -0.2071
vn -0.6066 0.7930 -0.0563
vn -0.6808 0.7247 0.1063
vn -0.6976 0.6887 0.1977
vn -0.6113 0.7216 0.3250
vn -0.5503 0.6889 0.4717
vn -0.4664 0.7314 0.4975
vn -0.2787 0.7862 0.5516
vn -0.1769 0.7156 0.6757
vn -0.0889 0.7029 0.7057
vn 0.0536 0.3893 0.9196
vn 0.3880 0.3025 0.8706
vn 0.4750 0.2355 0.8479
vn 0.5684 0.2755 0.7753
vn 0.7557 0.2730 0.5953
vn 0.8031 0.2783 0.5268
vn 0.8612 0.3896 0.3264
vn 0.9018 0.4295 0.0482
vn 0.9107 0.3914 -0.1321
vn 0.8960 0.3720 -0.2426
vn 0.8066 0.3606 -0.4683
vn 0.6846 0.2590 -0.6814
vn 0.6039 0.2053 -0.7702
vn 0.4793 0.2170 -0.8504
vn 0.3140 0.2402 -0.9185
vn 0.1476 0.2817 -0.9481
vn -0.0821 0.3423 -0.9360
vn -0.3646 0.3059 -0.8795
vn -0.4861 0.2343 -0.8419
vn -0.5753 0.2409 -0.7817
vn -0.7135 0.2983 -0.6340
vn -0.8222 0.3285 -0.4648
vn -0.8836 0.3602 -0.2993
vn -0.9459 0.3221 -0.0396
vn -0.9491 0.2966 0.1056
vn -0.9068 0.2896 0.3064
vn -0.8452 0.2386 0.4783
vn -0.7822 0.2618 0.5654
vn -0.6489 0.3584 0.6712
vn -0.3722 0.3212 0.8708
vn -0.2485 0.2442 0.9374
vn -0.1907 0.2887 0.9383
vn -0.0654 0.5998 0.7975
vn 0.1765 0.6513 0.7380
vn -0.6996 0.5305 0.4787
vn -0.6234 0.5479 0.5578
vn 0.3443 0.5267 -0.7772
vn 0.1879 0.5734 -0.7974
vn 0.3799 0.5330 0.7560
vn -0.4441 0.6354 0.6316
vn 0.0195 0.6203 -0.7841
vn 0.4738 0.4957 0.7279
vn -0.2626 0.5747 0.7751
vn -0.2024 0.6078 -0.7679
vn 0.5840 0.5327 0.6126
vn -0.1733 0.5230 0.8345
vn -0.3685 0.5045 -0.7808
vn 0.6668 0.5646 0.4864
vn -0.4626 0.5008 -0.7316
vn 0.6720 0.6577 0.3404
vn -0.5759 0.5446 -0.6096
vn 0.6900 0.7131 0.1239
vn -0.6759 0.5735 -0.4629
vn 0.7574 0.6511 -0.0495
vn -0.7309 0.5982 -0.3285
vn 0.7780 0.6117 -0.1432
vn -0.7571 0.6340 -0.1577
vn 0.7067 0.6551 -0.2674
vn -0.7990 0.6002 0.0375
vn 0.6223 0.6344 -0.4585
vn -0.8201 0.5430 0.1804
vn 0.5568 0.5609 -0.6127
vn -0.7784 0.5394 0.3210
vn 0.4703 0.5131 -0.7180
vn -0.0260 0.9847 0.1725
vn 0.7371 0.6721 -0.0710
vn 0.1293 0.9911 0.0308
vn -0.2820 0.8276 0.4852
vn 0.3694 0.8959 -0.2469
vn -0.1165 0.8352 0.5375
vn 0.2359 0.7885 0.5680
vn 0.3781 0.9256 0.0178
vn 0.3829 0.8666 -0.3200
vn 0.5446 0.8015 -0.2469
vn 0.4102 0.7784 -0.4752
vn -0.3491 0.6814 -0.6432
vn -0.0340 0.9977 -0.0590
vn 0.2070 0.9765 0.0599
vn 0.3596 0.9331 0.0069
vn 0.5364 0.8417 -0.0613
vn 0.2781 0.9468 -0.1622
vn -0.6083 0.7898 0.0789
vn -0.4160 0.8956 0.1578
vn 0.3461 0.8675 -0.3573
vn 0.1848 0.9037 -0.3863
vn -0.0294 0.9776 -0.2086
vn -0.2369 0.9654 -0.1087
vn -0.2804 0.8530 0.4402
vn -0.1650 0.9515 -0.2597
vn 0.0527 0.8809 0.4704
vn 0.1029 0.9555 0.2765
vn -0.4593 0.7844 -0.4169
vn -0.4640 0.8858 0.0117
vn 0.4746 0.7332 0.4869
vn 0.1161 0.9863 0.1175
vn -0.7214 0.6917 0.0346
vn 0.6899 0.2234 0.6886
vn 0.8082 0.2056 0.5519
vn -0.2925 0.2076 0.9335
vn -0.1724 0.2892 0.9416
vn -0.5137 0.2212 -0.8290
vn -0.5333 0.1867 -0.8250
vn 0.8205 0.2391 0.5192
vn -0.6058 0.2131 -0.7665
vn 0.9187 0.3208 0.2305
vn -0.7736 0.2599 -0.5779
vn 0.9372 0.3422 -0.0676
vn -0.8621 0.2852 -0.4188
vn 0.9279 0.3025 -0.2178
vn -0.9542 0.2693 -0.1304
vn 0.8872 0.2713 -0.3732
vn -0.9722 0.2304 0.0412
vn 0.7211 0.2219 -0.6563
vn -0.9484 0.2482 0.1971
vn 0.6091 0.1654 -0.7757
vn -0.8543 0.2094 0.4757
vn 0.5708 0.1616 -0.8050
vn -0.8458 0.1928 0.4974
vn 0.4195 0.1711 -0.8915
vn 0.3169 0.2835 0.9051
vn -0.7972 0.2521 0.5486
vn 0.2735 0.1936 -0.9422
vn 0.5056 0.2030 0.8385
vn -0.4883 0.2772 0.8274
vn 0.1032 0.2414 -0.9649
vn 0.4674 0.1994 0.8613
vn -0.2352 0.2069 0.9497
vn -0.2463 0.2730 -0.9300
vn -0.0487 0.5152 -0.8557
vn -0.0661 0.4014 -0.9135
vn -0.4035 0.3130 -0.8598
vn -0.6643 0.3519 -0.6595
vn -0.7078 0.3501 -0.6136
vn -0.8449 0.3602 -0.3954
vn -0.8581 0.5034 -0.1012
vn -0.8189 0.5678 -0.0837
vn -0.8611 0.5060 -0.0497
vn -0.8573 0.4872 0.1662
vn -0.7723 0.4549 0.4435
vn -0.7634 0.3211 0.5604
vn -0.5942 0.2686 0.7581
vn -0.5045 0.2847 0.8151
vn -0.1944 0.3025 0.9331
vn 0.0043 0.3514 0.9362
vn 0.1595 0.4418 0.8828
vn 0.1107 0.4189 0.9013
vn 0.3981 0.3116 0.8628
vn 0.6624 0.3109 0.6816
vn 0.7487 0.3829 0.5412
vn 0.7941 0.4378 0.4216
vn 0.8104 0.4922 0.3178
vn 0.8892 0.4282 0.1613
vn 0.9005 0.3956 -0.1807
vn 0.8897 0.3915 -0.2350
vn 0.8575 0.3115 -0.4096
vn 0.6973 0.3452 -0.6282
vn 0.4932 0.4664 -0.7343
vn 0.5370 0.4041 -0.7405
vn 0.2808 0.3114 -0.9078
vn -0.1000 0.3727 -0.9226
vn -0.3059 0.3214 0.8962
vn -0.0077 0.3435 0.9391
vn 0.0974 0.4703 -0.8771
vn -0.0926 0.3583 -0.9290
vn 0.3737 0.4741 -0.7972
vn 0.5568 0.5570 -0.6162
vn 0.2058 0.4135 0.8869
vn -0.6434 0.4016 -0.6517
vn 0.5813 0.3897 -0.7143
vn 0.1063 0.4200 0.9013
vn -0.6543 0.4284 -0.6232
vn -0.0248 0.3484 -0.9370
vn 0.1060 0.3461 0.9322
vn -0.7604 0.3946 -0.5158
vn -0.2509 0.4334 -0.8655
vn 0.5485 0.3045 0.7787
vn -0.8447 0.5341 0.0351
vn 0.7814 0.3395 0.5236
vn -0.7017 0.7112 0.0413
vn 0.7944 0.4296 0.4293
vn -0.6620 0.7308 -0.1666
vn 0.8100 0.5160 0.2785
vn -0.6017 0.7929 -0.0962
vn 0.7364 0.5856 0.3388
vn -0.4330 0.8918 0.1309
vn 0.8686 0.4941 0.0367
vn -0.8076 0.5513 0.2097
vn 0.8910 0.4034 -0.2082
vn -0.7799 0.2890 0.5553
vn 0.9270 0.3197 -0.1959
vn -0.5210 0.2374 0.8199
vn 0.7474 0.3094 -0.5879
vn 0.0252 0.9112 -0.4111
vn -0.0526 0.8624 -0.5034
vn -0.2779 0.8017 -0.5292
vn -0.4363 0.7962 -0.4192
vn -0.4272 0.8296 -0.3596
vn -0.4758 0.8247 -0.3058
vn -0.5242 0.8433 -0.1188
vn -0.4947 0.8690 -0.0055
vn -0.5522 0.8335 0.0186
vn -0.6236 0.7737 0.1119
vn -0.5245 0.7755 0.3515
vn -0.4060 0.8198 0.4037
vn -0.3373 0.8618 0.3789
vn -0.3538 0.8289 0.4332
vn -0.0601 0.8075 0.5867
vn -0.0103 0.8606 0.5092
vn 0.0208 0.8985 0.4386
vn 0.0490 0.8839 0.4651
vn 0.2885 0.8405 0.4586
vn 0.3611 0.8544 0.3737
vn 0.3877 0.8749 0.2903
vn 0.3834 0.8781 0.2861
vn 0.4695 0.8549 0.2206
vn 0.5618 0.8264 0.0384
vn 0.5173 0.8476 -0.1178
vn 0.4528 0.8771 -0.1601
vn 0.4265 0.8729 -0.2369
vn 0.4505 0.8441 -0.2907
vn 0.2911 0.8444 -0.4497
vn 0.2826 0.8470 -0.4502
vn 0.1347 0.8293 -0.5423
vn -0.0155 0.8779 -0.4786
vn 0.0644 0.7313 0.6790
vn 0.2105 0.6307 0.7470
vn -0.6219 0.5650 -0.5422
vn -0.6578 0.5805 -0.4800
vn 0.0577 0.5769 -0.8148
vn -0.0638 0.7244 -0.6865
vn 0.4941 0.5747 0.6524
vn -0.7408 0.6170 -0.2655
vn 0.5947 0.6187 0.5134
vn -0.7011 0.7108 -0.0573
vn 0.6225 0.6610 0.4190
vn -0.7313 0.6808 -0.0418
vn 0.6282 0.6953 0.3491
vn -0.8097 0.5850 0.0466
vn 0.7170 0.6641 0.2121
vn -0.7719 0.5514 0.3165
vn 0.7842 0.6180 -0.0564
vn -0.6534 0.5560 0.5137
vn 0.7210 0.6621 -0.2043
vn -0.5617 0.5480 0.6198
vn 0.7117 0.6416 -0.2862
vn -0.5125 0.5964 0.6177
vn 0.6888 0.6016 -0.4046
vn -0.3354 0.5336 0.7764
vn 0.0138 0.7250 -0.6886
vn 0.5350 0.6174 -0.5767
vn -0.0423 0.5749 0.8171
vn -0.1985 0.5958 -0.7782
vn 0.4149 0.6512 -0.6354
vn 0.0585 0.6491 0.7585
vn -0.4995 0.5327 -0.6831
vn 0.3618 0.5797 -0.7301
vn -0.0045 0.9684 -0.2494
vn -0.0797 0.9464 -0.3130
vn -0.1677 0.9426 -0.2888
vn -0.1821 0.9651 -0.1882
vn -0.1768 0.9716 -0.1573
vn -0.2485 0.9575 -0.1464
vn -0.3005 0.9494 -0.0914
vn -0.2728 0.9620 -0.0073
vn -0.2188 0.9755 0.0244
vn -0.2534 0.9657 0.0574
vn -0.2344 0.9620 0.1400
vn -0.1613 0.9761 0.1460
vn -0.1637 0.9720 0.1687
vn -0.1659 0.9474 0.2737
vn -0.0539 0.9567 0.2860
vn -0.0143 0.9797 0.2001
vn 0.0029 0.9721 0.2347
vn 0.0762 0.9511 0.2992
vn 0.1569 0.9541 0.2550
vn 0.1605 0.9699 0.1830
vn 0.1668 0.9774 0.1296
vn 0.2127 0.9667 0.1424
vn 0.3244 0.9390 0.1143
vn 0.3541 0.9348 0.0269
vn 0.3074 0.9506 -0.0426
vn 0.2630 0.9610 -0.0852
vn 0.2158 0.9685 -0.1240
vn 0.2148 0.9638 -0.1579
vn 0.1520 0.9654 -0.2119
vn 0.1194 0.9706 -0.2089
vn 0.0630 0.9700 -0.2350
vn 0.0192 0.9769 -0.2127
vn 0.2151 0.9579 0.1900
vn 0.2197 0.9608 0.1693
vn -0.3480 0.9365 -0.0429
vn -0.3086 0.9509 0.0226
vn 0.2982 0.9376 0.1792
vn -0.3316 0.9428 0.0331
vn 0.3938 0.9150 0.0877
vn -0.3596 0.9224 0.1408
vn 0.3864 0.9219 -0.0281
vn -0.2608 0.9395 0.2219
vn 0.3246 0.9421 -0.0840
vn -0.2037 0.9574 0.2048
vn 0.2775 0.9516 -0.1325
vn -0.2235 0.9452 0.2380
vn 0.2626 0.9524 -0.1549
vn -0.1370 0.9210 0.3646
vn 0.0130 0.9645 -0.2637
vn -0.0164 0.9469 -0.3211
vn 0.2402 0.9397 -0.2434
vn -0.0069 0.9500 0.3123
vn -0.1359 0.9211 -0.3649
vn 0.1610 0.9508 -0.2649
vn -0.0139 0.9637 0.2666
vn -0.2438 0.9232 -0.2970
vn 0.1305 0.9463 -0.2958
vn 0.0176 0.9520 0.3056
vn -0.2420 0.9458 -0.2168
vn 0.0336 0.9543 -0.2970
vn 0.1378 0.9334 0.3313
vn -0.2605 0.9429 -0.2076
vn 0.2077 0.9443 0.2554
vn -0.3379 0.9286 -0.1534
vn 0.0370 0.6480 0.7608
vn -0.6622 0.5256 0.5340
vn 0.2682 0.5481 -0.7922
vn 0.3039 0.5973 0.7422
vn -0.5553 0.5982 0.5777
vn 0.1056 0.5983 -0.7943
vn 0.4284 0.4990 0.7533
vn -0.3347 0.6212 0.7086
vn -0.0823 0.6300 -0.7722
vn 0.5234 0.5129 0.6804
vn -0.2135 0.5348 0.8175
vn -0.3067 0.5536 -0.7743
vn 0.6384 0.5451 0.5434
vn -0.1298 0.5482 0.8262
vn -0.4121 0.4890 -0.7688
vn 0.6738 0.6048 0.4246
vn -0.5190 0.5223 -0.6767
vn 0.6731 0.7010 0.2359
vn -0.6297 0.5622 -0.5361
vn 0.7236 0.6898 0.0244
vn -0.7107 0.5829 -0.3938
vn 0.7779 0.6200 -0.1027
vn -0.7423 0.6204 -0.2533
vn 0.7526 0.6301 -0.1913
vn -0.7774 0.6266 -0.0560
vn 0.6596 0.6583 -0.3627
vn -0.8164 0.5655 0.1166
vn 0.5903 0.5975 -0.5426
vn -0.8071 0.5375 0.2444
vn 0.5176 0.5303 -0.6715
vn -0.7402 0.5382 0.4031
vn 0.4128 0.5134 -0.7524
vn 0.8043 0.2140 0.5544
vn -0.2993 0.2391 0.9237
vn -0.5472 0.1954 -0.8139
vn 0.7831 0.2084 0.5860
vn -0.5368 0.1919 -0.8216
vn 0.8773 0.2831 0.3875
vn -0.6960 0.2392 -0.6770
vn 0.9369 0.3423 0.0719
vn -0.8271 0.2746 -0.4904
vn 0.9312 0.3249 -0.1653
vn -0.9079 0.2864 -0.3062
vn 0.9192 0.2836 -0.2731
vn -0.9704 0.2409 0.0195
vn 0.8199 0.2543 -0.5130
vn -0.9691 0.2395 0.0588
vn 0.6330 0.1858 -0.7515
vn -0.9007 0.2373 0.3640
vn 0.6086 0.1603 -0.7771
vn -0.8342 0.1914 0.5171
vn 0.5026 0.1657 -0.8485
vn 0.0652 0.3117 0.9480
vn -0.8471 0.2120 0.4873
vn 0.3385 0.1799 -0.9236
vn 0.4747 0.2335 0.8486
vn -0.6756 0.2851 0.6799
vn 0.2046 0.2137 -0.9552
vn 0.4810 0.1937 0.8550
vn -0.3091 0.2394 0.9204
vn -0.0514 0.2671 -0.9623
vn 0.5388 0.2169 0.8140
vn -0.2408 0.1970 0.9504
vn -0.4182 0.2542 -0.8721
vn -0.1498 0.3375 0.9293
vn 0.1033 0.3946 -0.9130
vn 0.3841 0.5735 -0.7236
vn 0.1157 0.3732 0.9205
vn -0.3854 0.3705 -0.8451
vn 0.6679 0.4610 -0.5843
vn 0.2022 0.4325 0.8787
vn -0.7194 0.4357 -0.5409
vn 0.3261 0.3644 -0.8723
vn 0.0342 0.3879 0.9211
vn -0.6069 0.4006 -0.6864
vn -0.2527 0.3596 -0.8982
vn 0.2947 0.3155 0.9020
vn -0.8829 0.4341 -0.1789
vn 0.7266 0.3058 0.6153
vn -0.7574 0.6439 0.1078
vn 0.7891 0.3885 0.4757
vn -0.6741 0.7345 -0.0779
vn 0.8078 0.4637 0.3639
vn -0.6531 0.7363 -0.1773
vn 0.7718 0.5799 0.2609
vn -0.4918 0.8703 0.0264
vn 0.7797 0.5341 0.3267
vn -0.6024 0.7782 0.1775
vn 0.8727 0.4351 -0.2214
vn -0.8713 0.3728 0.3191
vn 0.9177 0.3691 -0.1469
vn -0.6169 0.2432 0.7485
vn 0.8862 0.2940 -0.3580
vn -0.4388 0.2732 0.8561
vn -0.0762 0.4931 -0.8666
vn 0.5370 0.3653 -0.7604
vn 0.0711 0.6930 0.7174
vn -0.6325 0.5773 -0.5163
vn -0.0626 0.6434 -0.7630
vn 0.3808 0.5863 0.7150
vn -0.7027 0.5867 -0.4024
vn 0.5586 0.5911 0.5819
vn -0.7333 0.6684 -0.1245
vn 0.6145 0.6416 0.4591
vn -0.6974 0.7150 -0.0482
vn 0.6222 0.6819 0.3845
vn -0.7762 0.6303 -0.0124
vn 0.6602 0.6894 0.2982
vn -0.8151 0.5579 0.1557
vn 0.7701 0.6318 0.0881
vn -0.6991 0.5550 0.4508
vn 0.7536 0.6359 -0.1663
vn -0.6225 0.5466 0.5602
vn 0.7132 0.6635 -0.2260
vn -0.5054 0.5805 0.6384
vn 0.7014 0.6179 -0.3555
vn -0.4930 0.5614 0.6647
vn -0.0013 0.7553 -0.6554
vn 0.6457 0.5977 -0.4752
vn -0.1349 0.5419 0.8296
vn -0.0598 0.6612 -0.7478
vn 0.4264 0.6442 -0.6350
vn -0.0089 0.6078 0.7940
vn -0.3564 0.5500 -0.7553
vn 0.4296 0.6210 -0.6556
vn 0.1004 0.7058 0.7013
vn -0.5916 0.5439 -0.5951
vn 0.2219 0.5592 -0.7988
vn 0.2185 0.9618 0.1651
vn -0.3273 0.9449 0.0017
vn 0.2448 0.9517 0.1852
vn -0.3080 0.9510 0.0270
vn 0.3553 0.9236 0.1437
vn -0.3616 0.9298 0.0689
vn 0.4035 0.9146 0.0254
vn -0.3154 0.9270 0.2027
vn 0.3547 0.9327 -0.0644
vn -0.2215 0.9512 0.2150
vn 0.3019 0.9477 -0.1035
vn -0.2071 0.9562 0.2068
vn 0.2573 0.9545 -0.1509
vn -0.2131 0.9286 0.3037
vn 0.0104 0.9590 -0.2832
vn 0.2732 0.9442 -0.1839
vn -0.0436 0.9310 0.3625
vn -0.0687 0.9325 -0.3547
vn 0.1826 0.9441 -0.2746
vn -0.0121 0.9617 0.2738
vn -0.2001 0.9174 -0.3439
vn 0.1608 0.9500 -0.2676
vn -0.0037 0.9603 0.2790
vn -0.2553 0.9352 -0.2453
vn 0.0767 0.9474 -0.3107
vn 0.0650 0.9407 0.3331
vn -0.2371 0.9482 -0.2116
vn 0.0135 0.9620 -0.2729
vn 0.1937 0.9356 0.2953
vn -0.3012 0.9344 -0.1903
vn 0.2078 0.9522 0.2237
vn -0.3545 0.9297 -0.1003
vt 0.000000 0.000000
s 1
usemtl Material.001
f 2/1/2 193/1/193 545/1/545 258/1/258
f 193/1/193 1/1/1 257/1/257 545/1/545
f 545/1/545 257/1/257 33/1/33 225/1/225
f 258/1/258 545/1/545 225/1/225 34/1/34
f 29/1/29 220/1/220 546/1/546 260/1/260
f 220/1/220 28/1/28 259/1/259 546/1/546
f 546/1/546 259/1/259 60/1/60 252/1/252
f 260/1/260 546/1/546 252/1/252 61/1/61
f 16/1/16 207/1/207 547/1/547 262/1/262
f 207/1/207 15/1/15 261/1/261 547/1/547
f 547/1/547 261/1/261 47/1/47 239/1/239
f 262/1/262 547/1/547 239/1/239 48/1/48
f 3/1/3 194/1/194 548/1/548 263/1/263
f 194/1/194 2/1/2 258/1/258 548/1/548
f 548/1/548 258/1/258 34/1/34 226/1/226
f 263/1/263 548/1/548 226/1/226 35/1/35
f 30/1/30 221/1/221 549/1/549 264/1/264
f 221/1/221 29/1/29 260/1/260 549/1/549
f 549/1/549 260/1/260 61/1/61 253/1/253
f 264/1/264 549/1/549 253/1/253 62/1/62
f 17/1/17 208/1/208 550/1/550 265/1/265
f 208/1/208 16/1/16 262/1/262 550/1/550
f 550/1/550 262/1/262 48/1/48 240/1/240
f 265/1/265 550/1/550 240/1/240 49/1/49
f 4/1/4 195/1/195 551/1/551 266/1/266
f 195/1/195 3/1/3 263/1/263 551/1/551
f 551/1/551 263/1/263 35/1/35 227/1/227
f 266/1/266 551/1/551 227/1/227 36/1/36
f 31/1/31 222/1/222 552/1/552 267/1/267
f 222/1/222 30/1/30 264/1/264 552/1/552
f 552/1/552 264/1/264 62/1/62 254/1/254
f 267/1/267 552/1/552 254/1/254 63/1/63
f 18/1/18 209/1/209 553/1/553 268/1/268
f 209/1/209 17/1/17 265/1/265 553/1/553
f 553/1/553 265/1/265 49/1/49 241/1/241
f 268/1/268 553/1/553 241/1/241 50/1/50
f 5/1/5 196/1/196 554/1/554 269/1/269
f 196/1/196 4/1/4 266/1/266 554/1/554
f 554/1/554 266/1/266 36/1/36 228/1/228
f 269/1/269 554/1/554 228/1/228 37/1/37
f 32/1/32 223/1/223 555/1/555 270/1/270
f 223/1/223 31/1/31 267/1/267 555/1/555
f 555/1/555 267/1/267 63/1/63 255/1/255
f 270/1/270 555/1/555 255/1/255 64/1/64
f 19/1/19 210/1/210 556/1/556 271/1/271
f 210/1/210 18/1/18 268/1/268 556/1/556
f 556/1/556 268/1/268 50/1/50 242/1/242
f 271/1/271 556/1/556 242/1/242 51/1/51
f 6/1/6 197/1/197 557/1/557 272/1/272
f 197/1/197 5/1/5 269/1/269 557/1/557
f 557/1/557 269/1/269 37/1/37 229/1/229
f 272/1/272 557/1/557 229/1/229 38/1/38
f 1/1/1 224/1/224 558/1/558 257/1/257
f 224/1/224 32/1/32 270/1/270 558/1/558
f 558/1/558 270/1/270 64/1/64 256/1/256
f 257/1/257 558/1/558 256/1/256 33/1/33
f 20/1/20 211/1/211 559/1/559 273/1/273
f 211/1/211 19/1/19 271/1/271 559/1/559
f 559/1/559 271/1/271 51/1/51 243/1/243
f 273/1/273 559/1/559 243/1/243 52/1/52
f 7/1/7 198/1/198 560/1/560 274/1/274
f 198/1/198 6/1/6 272/1/272 560/1/560
f 560/1/560 272/1/272 38/1/38 230/1/230
f 274/1/274 560/1/560 230/1/230 39/1/39
f 21/1/21 212/1/212 561/1/561 275/1/275
f 212/1/212 20/1/20 273/1/273 561/1/561
f 561/1/561 273/1/273 52/1/52 244/1/244
f 275/1/275 561/1/561 244/1/244 53/1/53
f 8/1/8 199/1/199 562/1/562 276/1/276
f 199/1/199 7/1/7 274/1/274 562/1/562
f 562/1/562 274/1/274 39/1/39 231/1/231
f 276/1/276 562/1/562 231/1/231 40/1/40
f 22/1/22 213/1/213 563/1/563 277/1/277
f 213/1/213 21/1/21 275/1/275 563/1/563
f 563/1/563 275/1/275 53/1/53 245/1/245
f 277/1/277 563/1/563 245/1/245 54/1/54
f 9/1/9 200/1/200 564/1/564 278/1/278
f 200/1/200 8/1/8 276/1/276 564/1/564
f 564/1/564 276/1/276 40/1/40 232/1/232
f 278/1/278 564/1/564 232/1/232 41/1/41
f 23/1/23 214/1/214 565/1/565 279/1/279
f 214/1/214 22/1/22 277/1/277 565/1/565
f 565/1/565 277/1/277 54/1/54 246/1/246
f 279/1/279 565/1/565 246/1/246 55/1/55
f 10/1/10 201/1/201 566/1/566 280/1/280
f 201/1/201 9/1/9 278/1/278 566/1/566
f 566/1/566 278/1/278 41/1/41 233/1/233
f 280/1/280 566/1/566 233/1/233 42/1/42
f 24/1/24 215/1/215 567/1/567 281/1/281
f 215/1/215 23/1/23 279/1/279 567/1/567
f 567/1/567 279/1/279 55/1/55 247/1/247
f 281/1/281 567/1/567 247/1/247 56/1/56
f 11/1/11 202/1/202 568/1/568 282/1/282
f 202/1/202 10/1/10 280/1/280 568/1/568
f 568/1/568 280/1/280 42/1/42 234/1/234
f 282/1/282 568/1/568 234/1/234 43/1/43
f 25/1/25 216/1/216 569/1/569 283/1/283
f 216/1/216 24/1/24 281/1/281 569/1/569
f 569/1/569 281/1/281 56/1/56 248/1/248
f 283/1/283 569/1/569 248/1/248 57/1/57
f 12/1/12 203/1/203 570/1/570 284/1/284
f 203/1/203 11/1/11 282/1/282 570/1/570
f 570/1/570 282/1/282 43/1/43 235/1/235
f 284/1/284 570/1/570 235/1/235 44/1/44
f 26/1/26 217/1/217 571/1/571 285/1/285
f 217/1/217 25/1/25 283/1/283 571/1/571
f 571/1/571 283/1/283 57/1/57 249/1/249
f 285/1/285 571/1/571 249/1/249 58/1/58
f 13/1/13 204/1/204 572/1/572 286/1/286
f 204/1/204 12/1/12 284/1/284 572/1/572
f 572/1/572 284/1/284 44/1/44 236/1/236
f 286/1/286 572/1/572 236/1/236 45/1/45
f 27/1/27 218/1/218 573/1/573 287/1/287
f 218/1/218 26/1/26 285/1/285 573/1/573
f 573/1/573 285/1/285 58/1/58 250/1/250
f 287/1/287 573/1/573 250/1/250 59/1/59
f 14/1/14 205/1/205 574/1/574 288/1/288
f 205/1/205 13/1/13 286/1/286 574/1/574
f 574/1/574 286/1/286 45/1/45 237/1/237
f 288/1/288 574/1/574 237/1/237 46/1/46
f 28/1/28 219/1/219 575/1/575 259/1/259
f 219/1/219 27/1/27 287/1/287 575/1/575
f 575/1/575 287/1/287 59/1/59 251/1/251
f 259/1/259 575/1/575 251/1/251 60/1/60
f 15/1/15 206/1/206 576/1/576 261/1/261
f 206/1/206 14/1/14 288/1/288 576/1/576
f 576/1/576 288/1/288 46/1/46 238/1/238
f 261/1/261 576/1/576 238/1/238 47/1/47
f 38/1/38 229/1/229 577/1/577 322/1/322
f 229/1/229 37/1/37 321/1/321 577/1/577
f 577/1/577 321/1/321 69/1/69 293/1/293
f 322/1/322 577/1/577 293/1/293 70/1/70
f 33/1/33 256/1/256 578/1/578 324/1/324
f 256/1/256 64/1/64 323/1/323 578/1/578
f 578/1/578 323/1/323 96/1/96 320/1/320
f 324/1/324 578/1/578 320/1/320 65/1/65
f 52/1/52 243/1/243 579/1/579 326/1/326
f 243/1/243 51/1/51 325/1/325 579/1/579
f 579/1/579 325/1/325 83/1/83 307/1/307
f 326/1/326 579/1/579 307/1/307 84/1/84
f 39/1/39 230/1/230 580/1/580 327/1/327
f 230/1/230 38/1/38 322/1/322 580/1/580
f 580/1/580 322/1/322 70/1/70 294/1/294
f 327/1/327 580/1/580 294/1/294 71/1/71
f 53/1/53 244/1/244 581/1/581 328/1/328
f 244/1/244 52/1/52 326/1/326 581/1/581
f 581/1/581 326/1/326 84/1/84 308/1/308
f 328/1/328 581/1/581 308/1/308 85/1/85
f 40/1/40 231/1/231 582/1/582 329/1/329
f 231/1/231 39/1/39 327/1/327 582/1/582
f 582/1/582 327/1/327 71/1/71 295/1/295
f 329/1/329 582/1/582 295/1/295 72/1/72
f 54/1/54 245/1/245 583/1/583 330/1/330
f 245/1/245 53/1/53 328/1/328 583/1/583
f 583/1/583 328/1/328 85/1/85 309/1/309
f 330/1/330 583/1/583 309/1/309 86/1/86
f 41/1/41 232/1/232 584/1/584 331/1/331
f 232/1/232 40/1/40 329/1/329 584/1/584
f 584/1/584 329/1/329 72/1/72 296/1/296
f 331/1/331 584/1/584 296/1/296 73/1/73
f 55/1/55 246/1/246 585/1/585 332/1/332
f 246/1/246 54/1/54 330/1/330 585/1/585
f 585/1/585 330/1/330 86/1/86 310/1/310
f 332/1/332 585/1/585 310/1/310 87/1/87
f 42/1/42 233/1/233 586/1/586 333/1/333
f 233/1/233 41/1/41 331/1/331 586/1/586
f 586/1/586 331/1/331 73/1/73 297/1/297
f 333/1/333 586/1/586 297/1/297 74/1/74
f 56/1/56 247/1/247 587/1/587 334/1/334
f 247/1/247 55/1/55 332/1/332 587/1/587
f 587/1/587 332/1/332 87/1/87 311/1/311
f 334/1/334 587/1/587 311/1/311 88/1/88
f 43/1/43 234/1/234 588/1/588 335/1/335
f 234/1/234 42/1/42 333/1/333 588/1/588
f 588/1/588 333/1/333 74/1/74 298/1/298
f 335/1/335 588/1/588 298/1/298 75/1/75
f 57/1/57 248/1/248 589/1/589 336/1/336
f 248/1/248 56/1/56 334/1/334 589/1/589
f 589/1/589 334/1/334 88/1/88 312/1/312
f 336/1/336 589/1/589 312/1/312 89/1/89
f 44/1/44 235/1/235 590/1/590 337/1/337
f 235/1/235 43/1/43 335/1/335 590/1/590
f 590/1/590 335/1/335 75/1/75 299/1/299
f 337/1/337 590/1/590 299/1/299 76/1/76
f 58/1/58 249/1/249 591/1/591 338/1/338
f 249/1/249 57/1/57 336/1/336 591/1/591
f 591/1/591 336/1/336 89/1/89 313/1/313
f 338/1/338 591/1/591 313/1/313 90/1/90
f 45/1/45 236/1/236 592/1/592 339/1/339
f 236/1/236 44/1/44 337/1/337 592/1/592
f 592/1/592 337/1/337 76/1/76 300/1/300
f 339/1/339 592/1/592 300/1/300 77/1/77
f 59/1/59 250/1/250 593/1/593 340/1/340
f 250/1/250 58/1/58 338/1/338 593/1/593
f 593/1/593 338/1/338 90/1/90 314/1/314
f 340/1/340 593/1/593 314/1/314 91/1/91
f 46/1/46 237/1/237 594/1/594 341/1/341
f 237/1/237 45/1/45 339/1/339 594/1/594
f 594/1/594 339/1/339 77/1/77 301/1/301
f 341/1/341 594/1/594 301/1/301 78/1/78
f 60/1/60 251/1/251 595/1/595 342/1/342
f 251/1/251 59/1/59 340/1/340 595/1/595
f 595/1/595 340/1/340 91/1/91 315/1/315
f 342/1/342 595/1/595 315/1/315 92/1/92
f 47/1/47 238/1/238 596/1/596 343/1/343
f 238/1/238 46/1/46 341/1/341 596/1/596
f 596/1/596 341/1/341 78/1/78 302/1/302
f 343/1/343 596/1/596 302/1/302 79/1/79
f 34/1/34 225/1/225 597/1/597 344/1/344
f 225/1/225 33/1/33 324/1/324 597/1/597
f 597/1/597 324/1/324 65/1/65 289/1/289
f 344/1/344 597/1/597 289/1/289 66/1/66
f 61/1/61 252/1/252 598/1/598 345/1/345
f 252/1/252 60/1/60 342/1/342 598/1/598
f 598/1/598 342/1/342 92/1/92 316/1/316
f 345/1/345 598/1/598 316/1/316 93/1/93
f 48/1/48 239/1/239 599/1/599 346/1/346
f 239/1/239 47/1/47 343/1/343 599/1/599
f 599/1/599 343/1/343 79/1/79 303/1/303
f 346/1/346 599/1/599 303/1/303 80/1/80
f 35/1/35 226/1/226 600/1/600 347/1/347
f 226/1/226 34/1/34 344/1/344 600/1/600
f 600/1/600 344/1/344 66/1/66 290/1/290
f 347/1/347 600/1/600 290/1/290 67/1/67
f 62/1/62 253/1/253 601/1/601 348/1/348
f 253/1/253 61/1/61 345/1/345 601/1/601
f 601/1/601 345/1/345 93/1/93 317/1/317
f 348/1/348 601/1/601 317/1/317 94/1/94
f 49/1/49 240/1/240 602/1/602 349/1/349
f 240/1/240 48/1/48 346/1/346 602/1/602
f 602/1/602 346/1/346 80/1/80 304/1/304
f 349/1/349 602/1/602 304/1/304 81/1/81
f 36/1/36 227/1/227 603/1/603 350/1/350
f 227/1/227 35/1/35 347/1/347 603/1/603
f 603/1/603 347/1/347 67/1/67 291/1/291
f 350/1/350 603/1/603 291/1/291 68/1/68
f 63/1/63 254/1/254 604/1/604 351/1/351
f 254/1/254 62/1/62 348/1/348 604/1/604
f 604/1/604 348/1/348 94/1/94 318/1/318
f 351/1/351 604/1/604 318/1/318 95/1/95
f 50/1/50 241/1/241 605/1/605 352/1/352
f 241/1/241 49/1/49 349/1/349 605/1/605
f 605/1/605 349/1/349 81/1/81 305/1/305
f 352/1/352 605/1/605 305/1/305 82/1/82
f 37/1/37 228/1/228 606/1/606 321/1/321
f 228/1/228 36/1/36 350/1/350 606/1/606
f 606/1/606 350/1/350 68/1/68 292/1/292
f 321/1/321 606/1/606 292/1/292 69/1/69
f 64/1/64 255/1/255 607/1/607 323/1/323
f 255/1/255 63/1/63 351/1/351 607/1/607
f 607/1/607 351/1/351 95/1/95 319/1/319
f 323/1/323 607/1/607 319/1/319 96/1/96
f 51/1/51 242/1/242 608/1/608 325/1/325
f 242/1/242 50/1/50 352/1/352 608/1/608
f 608/1/608 352/1/352 82/1/82 306/1/306
f 325/1/325 608/1/608 306/1/306 83/1/83
f 80/1/80 303/1/303 609/1/609 386/1/386
f 303/1/303 79/1/79 385/1/385 609/1/609
f 609/1/609 385/1/385 111/1/111 367/1/367
f 386/1/386 609/1/609 367/1/367 112/1/112
f 67/1/67 290/1/290 610/1/610 388/1/388
f 290/1/290 66/1/66 387/1/387 610/1/610
f 610/1/610 387/1/387 98/1/98 354/1/354
f 388/1/388 610/1/610 354/1/354 99/1/99
f 94/1/94 317/1/317 611/1/611 390/1/390
f 317/1/317 93/1/93 389/1/389 611/1/611
f 611/1/611 389/1/389 125/1/125 381/1/381
f 390/1/390 611/1/611 381/1/381 126/1/126
f 81/1/81 304/1/304 612/1/612 391/1/391
f 304/1/304 80/1/80 386/1/386 612/1/612
f 612/1/612 386/1/386 112/1/112 368/1/368
f 391/1/391 612/1/612 368/1/368 113/1/113
f 68/1/68 291/1/291 613/1/613 392/1/392
f 291/1/291 67/1/67 388/1/388 613/1/613
f 613/1/613 388/1/388 99/1/99 355/1/355
f 392/1/392 613/1/613 355/1/355 100/1/100
f 95/1/95 318/1/318 614/1/614 393/1/393
f 318/1/318 94/1/94 390/1/390 614/1/614
f 614/1/614 390/1/390 126/1/126 382/1/382
f 393/1/393 614/1/614 382/1/382 127/1/127
f 82/1/82 305/1/305 615/1/615 394/1/394
f 305/1/305 81/1/81 391/1/391 615/1/615
f 615/1/615 391/1/391 113/1/113 369/1/369
f 394/1/394 615/1/615 369/1/369 114/1/114
f 69/1/69 292/1/292 616/1/616 395/1/395
f 292/1/292 68/1/68 392/1/392 616/1/616
f 616/1/616 392/1/392 100/1/100 356/1/356
f 395/1/395 616/1/616 356/1/356 101/1/101
f 96/1/96 319/1/319 617/1/617 396/1/396
f 319/1/319 95/1/95 393/1/393 617/1/617
f 617/1/617 393/1/393 127/1/127 383/1/383
f 396/1/396 617/1/617 383/1/383 128/1/128
f 83/1/83 306/1/306 618/1/618 397/1/397
f 306/1/306 82/1/82 394/1/394 618/1/618
f 618/1/618 394/1/394 114/1/114 370/1/370
f 397/1/397 618/1/618 370/1/370 115/1/115
f 70/1/70 293/1/293 619/1/619 398/1/398
f 293/1/293 69/1/69 395/1/395 619/1/619
f 619/1/619 395/1/395 101/1/101 357/1/357
f 398/1/398 619/1/619 357/1/357 102/1/102
f 65/1/65 320/1/320 620/1/620 399/1/399
f 320/1/320 96/1/96 396/1/396 620/1/620
f 620/1/620 396/1/396 128/1/128 384/1/384
f 399/1/399 620/1/620 384/1/384 97/1/97
f 84/1/84 307/1/307 621/1/621 400/1/400
f 307/1/307 83/1/83 397/1/397 621/1/621
f 621/1/621 397/1/397 115/1/115 371/1/371
f 400/1/400 621/1/621 371/1/371 116/1/116
f 71/1/71 294/1/294 622/1/622 401/1/401
f 294/1/294 70/1/70 398/1/398 622/1/622
f 622/1/622 398/1/398 102/1/102 358/1/358
f 401/1/401 622/1/622 358/1/358 103/1/103
f 85/1/85 308/1/308 623/1/623 402/1/402
f 308/1/308 84/1/84 400/1/400 623/1/623
f 623/1/623 400/1/400 116/1/116 372/1/372
f 402/1/402 623/1/623 372/1/372 117/1/117
f 72/1/72 295/1/295 624/1/624 403/1/403
f 295/1/295 71/1/71 401/1/401 624/1/624
f 624/1/624 401/1/401 103/1/103 359/1/359
f 403/1/403 624/1/624 359/1/359 104/1/104
f 86/1/86 309/1/309 625/1/625 404/1/404
f 309/1/309 85/1/85 402/1/402 625/1/625
f 625/1/625 402/1/402 117/1/117 373/1/373
f 404/1/404 625/1/625 373/1/373 118/1/118
f 73/1/73 296/1/296 626/1/626 405/1/405
f 296/1/296 72/1/72 403/1/403 626/1/626
f 626/1/626 403/1/403 104/1/104 360/1/360
f 405/1/405 626/1/626 360/1/360 105/1/105
f 87/1/87 310/1/310 627/1/627 406/1/406
f 310/1/310 86/1/86 404/1/404 627/1/627
f 627/1/627 404/1/404 118/1/118 374/1/374
f 406/1/406 627/1/627 374/1/374 119/1/119
f 74/1/74 297/1/297 628/1/628 407/1/407
f 297/1/297 73/1/73 405/1/405 628/1/628
f 628/1/628 405/1/405 105/1/105 361/1/361
f 407/1/407 628/1/628 361/1/361 106/1/106
f 88/1/88 311/1/311 629/1/629 408/1/408
f 311/1/311 87/1/87 406/1/406 629/1/629
f 629/1/629 406/1/406 119/1/119 375/1/375
f 408/1/408 629/1/629 375/1/375 120/1/120
f 75/1/75 298/1/298 630/1/630 409/1/409
f 298/1/298 74/1/74 407/1/407 630/1/630
f 630/1/630 407/1/407 106/1/106 362/1/362
f 409/1/409 630/1/630 362/1/362 107/1/107
f 89/1/89 312/1/312 631/1/631 410/1/410
f 312/1/312 88/1/88 408/1/408 631/1/631
f 631/1/631 408/1/408 120/1/120 376/1/376
f 410/1/410 631/1/631 376/1/376 121/1/121
f 76/1/76 299/1/299 632/1/632 411/1/411
f 299/1/299 75/1/75 409/1/409 632/1/632
f 632/1/632 409/1/409 107/1/107 363/1/363
f 411/1/411 632/1/632 363/1/363 108/1/108
f 90/1/90 313/1/313 633/1/633 412/1/412
f 313/1/313 89/1/89 410/1/410 633/1/633
f 633/1/633 410/1/410 121/1/121 377/1/377
f 412/1/412 633/1/633 377/1/377 122/1/122
f 77/1/77 300/1/300 634/1/634 413/1/413
f 300/1/300 76/1/76 411/1/411 634/1/634
f 634/1/634 411/1/411 108/1/108 364/1/364
f 413/1/413 634/1/634 364/1/364 109/1/109
f 91/1/91 314/1/314 635/1/635 414/1/414
f 314/1/314 90/1/90 412/1/412 635/1/635
f 635/1/635 412/1/412 122/1/122 378/1/378
f 414/1/414 635/1/635 378/1/378 123/1/123
f 78/1/78 301/1/301 636/1/636 415/1/415
f 301/1/301 77/1/77 413/1/413 636/1/636
f 636/1/636 413/1/413 109/1/109 365/1/365
f 415/1/415 636/1/636 365/1/365 110/1/110
f 92/1/92 315/1/315 637/1/637 416/1/416
f 315/1/315 91/1/91 414/1/414 637/1/637
f 637/1/637 414/1/414 123/1/123 379/1/379
f 416/1/416 637/1/637 379/1/379 124/1/124
f 79/1/79 302/1/302 638/1/638 385/1/385
f 302/1/302 78/1/78 415/1/415 638/1/638
f 638/1/638 415/1/415 110/1/110 366/1/366
f 385/1/385 638/1/638 366/1/366 111/1/111
f 66/1/66 289/1/289 639/1/639 387/1/387
f 289/1/289 65/1/65 399/1/399 639/1/639
f 639/1/639 399/1/399 97/1/97 353/1/353
f 387/1/387 639/1/639 353/1/353 98/1/98
f 93/1/93 316/1/316 640/1/640 389/1/389
f 316/1/316 92/1/92 416/1/416 640/1/640
f 640/1/640 416/1/416 124/1/124 380/1/380
f 389/1/389 640/1/640 380/1/380 125/1/125
f 115/1/115 370/1/370 641/1/641 450/1/450
f 370/1/370 114/1/114 449/1/449 641/1/641
f 641/1/641 449/1/449 146/1/146 434/1/434
f 450/1/450 641/1/641 434/1/434 147/1/147
f 102/1/102 357/1/357 642/1/642 452/1/452
f 357/1/357 101/1/101 451/1/451 642/1/642
f 642/1/642 451/1/451 133/1/133 421/1/421
f 452/1/452 642/1/642 421/1/421 134/1/134
f 97/1/97 384/1/384 643/1/643 454/1/454
f 384/1/384 128/1/128 453/1/453 643/1/643
f 643/1/643 453/1/453 160/1/160 448/1/448
f 454/1/454 643/1/643 448/1/448 129/1/129
f 116/1/116 371/1/371 644/1/644 455/1/455
f 371/1/371 115/1/115 450/1/450 644/1/644
f 644/1/644 450/1/450 147/1/147 435/1/435
f 455/1/455 644/1/644 435/1/435 148/1/148
f 103/1/103 358/1/358 645/1/645 456/1/456
f 358/1/358 102/1/102 452/1/452 645/1/645
f 645/1/645 452/1/452 134/1/134 422/1/422
f 456/1/456 645/1/645 422/1/422 135/1/135
f 117/1/117 372/1/372 646/1/646 457/1/457
f 372/1/372 116/1/116 455/1/455 646/1/646
f 646/1/646 455/1/455 148/1/148 436/1/436
f 457/1/457 646/1/646 436/1/436 149/1/149
f 104/1/104 359/1/359 647/1/647 458/1/458
f 359/1/359 103/1/103 456/1/456 647/1/647
f 647/1/647 456/1/456 135/1/135 423/1/423
f 458/1/458 647/1/647 423/1/423 136/1/136
f 118/1/118 373/1/373 648/1/648 459/1/459
f 373/1/373 117/1/117 457/1/457 648/1/648
f 648/1/648 457/1/457 149/1/149 437/1/437
f 459/1/459 648/1/648 437/1/437 150/1/150
f 105/1/105 360/1/360 649/1/649 460/1/460
f 360/1/360 104/1/104 458/1/458 649/1/649
f 649/1/649 458/1/458 136/1/136 424/1/424
f 460/1/460 649/1/649 424/1/424 137/1/137
f 119/1/119 374/1/374 650/1/650 461/1/461
f 374/1/374 118/1/118 459/1/459 650/1/650
f 650/1/650 459/1/459 150/1/150 438/1/438
f 461/1/461 650/1/650 438/1/438 151/1/151
f 106/1/106 361/1/361 651/1/651 462/1/462
f 361/1/361 105/1/105 460/1/460 651/1/651
f 651/1/651 460/1/460 137/1/137 425/1/425
f 462/1/462 651/1/651 425/1/425 138/1/138
f 120/1/120 375/1/375 652/1/652 463/1/463
f 375/1/375 119/1/119 461/1/461 652/1/652
f 652/1/652 461/1/461 151/1/151 439/1/439
f 463/1/463 652/1/652 439/1/439 152/1/152
f 107/1/107 362/1/362 653/1/653 464/1/464
f 362/1/362 106/1/106 462/1/462 653/1/653
f 653/1/653 462/1/462 138/1/138 426/1/426
f 464/1/464 653/1/653 426/1/426 139/1/139
f 121/1/121 376/1/376 654/1/654 465/1/465
f 376/1/376 120/1/120 463/1/463 654/1/654
f 654/1/654 463/1/463 152/1/152 440/1/440
f 465/1/465 654/1/654 440/1/440 153/1/153
f 108/1/108 363/1/363 655/1/655 466/1/466
f 363/1/363 107/1/107 464/1/464 655/1/655
f 655/1/655 464/1/464 139/1/139 427/1/427
f 466/1/466 655/1/655 427/1/427 140/1/140
f 122/1/122 377/1/377 656/1/656 467/1/467
f 377/1/377 121/1/121 465/1/465 656/1/656
f 656/1/656 465/1/465 153/1/153 441/1/441
f 467/1/467 656/1/656 441/1/441 154/1/154
f 109/1/109 364/1/364 657/1/657 468/1/468
f 364/1/364 108/1/108 466/1/466 657/1/657
f 657/1/657 466/1/466 140/1/140 428/1/428
f 468/1/468 657/1/657 428/1/428 141/1/141
f 123/1/123 378/1/378 658/1/658 469/1/469
f 378/1/378 122/1/122 467/1/467 658/1/658
f 658/1/658 467/1/467 154/1/154 442/1/442
f 469/1/469 658/1/658 442/1/442 155/1/155
f 110/1/110 365/1/365 659/1/659 470/1/470
f 365/1/365 109/1/109 468/1/468 659/1/659
f 659/1/659 468/1/468 141/1/141 429/1/429
f 470/1/470 659/1/659 429/1/429 142/1/142
f 124/1/124 379/1/379 660/1/660 471/1/471
f 379/1/379 123/1/123 469/1/469 660/1/660
f 660/1/660 469/1/469 155/1/155 443/1/443
f 471/1/471 660/1/660 443/1/443 156/1/156
f 111/1/111 366/1/366 661/1/661 472/1/472
f 366/1/366 110/1/110 470/1/470 661/1/661
f 661/1/661 470/1/470 142/1/142 430/1/430
f 472/1/472 661/1/661 430/1/430 143/1/143
f 98/1/98 353/1/353 662/1/662 473/1/473
f 353/1/353 97/1/97 454/1/454 662/1/662
f 662/1/662 454/1/454 129/1/129 417/1/417
f 473/1/473 662/1/662 417/1/417 130/1/130
f 125/1/125 380/1/380 663/1/663 474/1/474
f 380/1/380 124/1/124 471/1/471 663/1/663
f 663/1/663 471/1/471 156/1/156 444/1/444
f 474/1/474 663/1/663 444/1/444 157/1/157
f 112/1/112 367/1/367 664/1/664 475/1/475
f 367/1/367 111/1/111 472/1/472 664/1/664
f 664/1/664 472/1/472 143/1/143 431/1/431
f 475/1/475 664/1/664 431/1/431 144/1/144
f 99/1/99 354/1/354 665/1/665 476/1/476
f 354/1/354 98/1/98 473/1/473 665/1/665
f 665/1/665 473/1/473 130/1/130 418/1/418
f 476/1/476 665/1/665 418/1/418 131/1/131
f 126/1/126 381/1/381 666/1/666 477/1/477
f 381/1/381 125/1/125 474/1/474 666/1/666
f 666/1/666 474/1/474 157/1/157 445/1/445
f 477/1/477 666/1/666 445/1/445 158/1/158
f 113/1/113 368/1/368 667/1/667 478/1/478
f 368/1/368 112/1/112 475/1/475 667/1/667
f 667/1/667 475/1/475 144/1/144 432/1/432
f 478/1/478 667/1/667 432/1/432 145/1/145
f 100/1/100 355/1/355 668/1/668 479/1/479
f 355/1/355 99/1/99 476/1/476 668/1/668
f 668/1/668 476/1/476 131/1/131 419/1/419
f 479/1/479 668/1/668 419/1/419 132/1/132
f 127/1/127 382/1/382 669/1/669 480/1/480
f 382/1/382 126/1/126 477/1/477 669/1/669
f 669/1/669 477/1/477 158/1/158 446/1/446
f 480/1/480 669/1/669 446/1/446 159/1/159
f 114/1/114 369/1/369 670/1/670 449/1/449
f 369/1/369 113/1/113 478/1/478 670/1/670
f 670/1/670 478/1/478 145/1/145 433/1/433
f 449/1/449 670/1/670 433/1/433 146/1/146
f 101/1/101 356/1/356 671/1/671 451/1/451
f 356/1/356 100/1/100 479/1/479 671/1/671
f 671/1/671 479/1/479 132/1/132 420/1/420
f 451/1/451 671/1/671 420/1/420 133/1/133
f 128/1/128 383/1/383 672/1/672 453/1/453
f 383/1/383 127/1/127 480/1/480 672/1/672
f 672/1/672 480/1/480 159/1/159 447/1/447
f 453/1/453 672/1/672 447/1/447 160/1/160
f 150/1/150 437/1/437 673/1/673 514/1/514
f 437/1/437 149/1/149 513/1/513 673/1/673
f 673/1/673 513/1/513 181/1/181 501/1/501
f 514/1/514 673/1/673 501/1/501 182/1/182
f 137/1/137 424/1/424 674/1/674 516/1/516
f 424/1/424 136/1/136 515/1/515 674/1/674
f 674/1/674 515/1/515 168/1/168 488/1/488
f 516/1/516 674/1/674 488/1/488 169/1/169
f 151/1/151 438/1/438 675/1/675 517/1/517
f 438/1/438 150/1/150 514/1/514 675/1/675
f 675/1/675 514/1/514 182/1/182 502/1/502
f 517/1/517 675/1/675 502/1/502 183/1/183
f 138/1/138 425/1/425 676/1/676 518/1/518
f 425/1/425 137/1/137 516/1/516 676/1/676
f 676/1/676 516/1/516 169/1/169 489/1/489
f 518/1/518 676/1/676 489/1/489 170/1/170
f 152/1/152 439/1/439 677/1/677 519/1/519
f 439/1/439 151/1/151 517/1/517 677/1/677
f 677/1/677 517/1/517 183/1/183 503/1/503
f 519/1/519 677/1/677 503/1/503 184/1/184
f 139/1/139 426/1/426 678/1/678 520/1/520
f 426/1/426 138/1/138 518/1/518 678/1/678
f 678/1/678 518/1/518 170/1/170 490/1/490
f 520/1/520 678/1/678 490/1/490 171/1/171
f 153/1/153 440/1/440 679/1/679 521/1/521
f 440/1/440 152/1/152 519/1/519 679/1/679
f 679/1/679 519/1/519 184/1/184 504/1/504
f 521/1/521 679/1/679 504/1/504 185/1/185
f 140/1/140 427/1/427 680/1/680 522/1/522
f 427/1/427 139/1/139 520/1/520 680/1/680
f 680/1/680 520/1/520 171/1/171 491/1/491
f 522/1/522 680/1/680 491/1/491 172/1/172
f 154/1/154 441/1/441 681/1/681 523/1/523
f 441/1/441 153/1/153 521/1/521 681/1/681
f 681/1/681 521/1/521 185/1/185 505/1/505
f 523/1/523 681/1/681 505/1/505 186/1/186
f 141/1/141 428/1/428 682/1/682 524/1/524
f 428/1/428 140/1/140 522/1/522 682/1/682
f 682/1/682 522/1/522 172/1/172 492/1/492
f 524/1/524 682/1/682 492/1/492 173/1/173
f 155/1/155 442/1/442 683/1/683 525/1/525
f 442/1/442 154/1/154 523/1/523 683/1/683
f 683/1/683 523/1/523 186/1/186 506/1/506
f 525/1/525 683/1/683 506/1/506 187/1/187
f 142/1/142 429/1/429 684/1/684 526/1/526
f 429/1/429 141/1/141 524/1/524 684/1/684
f 684/1/684 524/1/524 173/1/173 493/1/493
f 526/1/526 684/1/684 493/1/493 174/1/174
f 156/1/156 443/1/443 685/1/685 527/1/527
f 443/1/443 155/1/155 525/1/525 685/1/685
f 685/1/685 525/1/525 187/1/187 507/1/507
f 527/1/527 685/1/685 507/1/507 188/1/188
f 143/1/143 430/1/430 686/1/686 528/1/528
f 430/1/430 142/1/142 526/1/526 686/1/686
f 686/1/686 526/1/526 174/1/174 494/1/494
f 528/1/528 686/1/686 494/1/494 175/1/175
f 130/1/130 417/1/417 687/1/687 530/1/530
f 417/1/417 129/1/129 529/1/529 687/1/687
f 687/1/687 529/1/529 161/1/161 481/1/481
f 530/1/530 687/1/687 481/1/481 162/1/162
f 157/1/157 444/1/444 688/1/688 531/1/531
f 444/1/444 156/1/156 527/1/527 688/1/688
f 688/1/688 527/1/527 188/1/188 508/1/508
f 531/1/531 688/1/688 508/1/508 189/1/189
f 144/1/144 431/1/431 689/1/689 532/1/532
f 431/1/431 143/1/143 528/1/528 689/1/689
f 689/1/689 528/1/528 175/1/175 495/1/495
f 532/1/532 689/1/689 495/1/495 176/1/176
f 131/1/131 418/1/418 690/1/690 533/1/533
f 418/1/418 130/1/130 530/1/530 690/1/690
f 690/1/690 530/1/530 162/1/162 482/1/482
f 533/1/533 690/1/690 482/1/482 163/1/163
f 158/1/158 445/1/445 691/1/691 534/1/534
f 445/1/445 157/1/157 531/1/531 691/1/691
f 691/1/691 531/1/531 189/1/189 509/1/509
f 534/1/534 691/1/691 509/1/509 190/1/190
f 145/1/145 432/1/432 692/1/692 535/1/535
f 432/1/432 144/1/144 532/1/532 692/1/692
f 692/1/692 532/1/532 176/1/176 496/1/496
f 535/1/535 692/1/692 496/1/496 177/1/177
f 132/1/132 419/1/419 693/1/693 536/1/536
f 419/1/419 131/1/131 533/1/533 693/1/693
f 693/1/693 533/1/533 163/1/163 483/1/483
f 536/1/536 693/1/693 483/1/483 164/1/164
f 159/1/159 446/1/446 694/1/694 537/1/537
f 446/1/446 158/1/158 534/1/534 694/1/694
f 694/1/694 534/1/534 190/1/190 510/1/510
f 537/1/537 694/1/694 510/1/510 191/1/191
f 146/1/146 433/1/433 695/1/695 538/1/538
f 433/1/433 145/1/145 535/1/535 695/1/695
f 695/1/695 535/1/535 177/1/177 497/1/497
f 538/1/538 695/1/695 497/1/497 178/1/178
f 133/1/133 420/1/420 696/1/696 539/1/539
f 420/1/420 132/1/132 536/1/536 696/1/696
f 696/1/696 536/1/536 164/1/164 484/1/484
f 539/1/539 696/1/696 484/1/484 165/1/165
f 160/1/160 447/1/447 697/1/697 540/1/540
f 447/1/447 159/1/159 537/1/537 697/1/697
f 697/1/697 537/1/537 191/1/191 511/1/511
f 540/1/540 697/1/697 511/1/511 192/1/192
f 147/1/147 434/1/434 698/1/698 541/1/541
f 434/1/434 146/1/146 538/1/538 698/1/698
f 698/1/698 538/1/538 178/1/178 498/1/498
f 541/1/541 698/1/698 498/1/498 179/1/179
f 134/1/134 421/1/421 699/1/699 542/1/542
f 421/1/421 133/1/133 539/1/539 699/1/699
f 699/1/699 539/1/539 165/1/165 485/1/485
f 542/1/542 699/1/699 485/1/485 166/1/166
f 129/1/129 448/1/448 700/1/700 529/1/529
f 448/1/448 160/1/160 540/1/540 700/1/700
f 700/1/700 540/1/540 192/1/192 512/1/512
f 529/1/529 700/1/700 512/1/512 161/1/161
f 148/1/148 435/1/435 701/1/701 543/1/543
f 435/1/435 147/1/147 541/1/541 701/1/701
f 701/1/701 541/1/541 179/1/179 499/1/499
f 543/1/543 701/1/701 499/1/499 180/1/180
f 135/1/135 422/1/422 702/1/702 544/1/544
f 422/1/422 134/1/134 542/1/542 702/1/702
f 702/1/702 542/1/542 166/1/166 486/1/486
f 544/1/544 702/1/702 486/1/486 167/1/167
f 149/1/149 436/1/436 703/1/703 513/1/513
f 436/1/436 148/1/148 543/1/543 703/1/703
f 703/1/703 543/1/543 180/1/180 500/1/500
f 513/1/513 703/1/703 500/1/500 181/1/181
f 136/1/136 423/1/423 704/1/704 515/1/515
f 423/1/423 135/1/135 544/1/544 704/1/704
f 704/1/704 544/1/544 167/1/167 487/1/487
f 515/1/515 704/1/704 487/1/487 168/1/168
